<svg xmlns="http://www.w3.org/2000/svg" viewBox="0 0 66.34 79.38"><defs><clipPath id="E" clipPathUnits="userSpaceOnUse"><path d="m68.05 785.56-.15-.01c-2.08-.2-3.75-1.87-4.88-4.26a17 17 0 0 1-.96-2.69c.25.22.55.43.9.63.73.42 1.76.81 2.93.93 2.6.26 7.03-.4 8.72-5.17 1.79-5.03-2.02-14.84-5.44-21.94 1.66-2.89 2.67-4.71 4.55-7.78 0 0 8.13 12.39 8.23 12.57 2.58 5.2 4.01 11.58 3.63 16.68-.61 8.2-5.73 10.62-5.8 10.68a4.15 4.15 0 0 1-.4-.2c-1.82-1.1-1.87-2.82-8.15.19-.68.32-1.57.4-2.33.4-.32 0-.6-.01-.85-.03"/></clipPath><clipPath id="a" clipPathUnits="userSpaceOnUse"><path d="M-32768 32767h65535v-65535h-65535Z"/></clipPath><clipPath id="H" clipPathUnits="userSpaceOnUse"><path d="M51.02 713.87h168.66v77H51.02Z"/></clipPath><clipPath id="I" clipPathUnits="userSpaceOnUse"><path d="m68.05 785.56-.15-.01c-2.08-.2-3.75-1.87-4.88-4.26a17 17 0 0 1-.96-2.69c.25.22.55.43.9.63.73.42 1.76.81 2.93.93 2.6.26 7.03-.4 8.72-5.17 1.79-5.03-2.02-14.84-5.44-21.94 1.66-2.89 3.09-5.83 4.71-8.76 0 0 8.72 15.1 8.8 15.3 2.6 5.2 3.7 11.28 3.28 15.03-.43 3.8-1.18 5.17-2.11 6.58-.33.49-4 3.94-4.07 4a4.15 4.15 0 0 1-.4-.2c-1.82-1.1-1.87-2.82-8.16.19a5.7 5.7 0 0 1-2.33.4c-.3 0-.6-.01-.84-.03"/></clipPath><clipPath id="c" clipPathUnits="userSpaceOnUse"><path d="M-32768 32767h65535v-65535h-65535Z"/></clipPath><clipPath id="L" clipPathUnits="userSpaceOnUse"><path d="M51.02 713.87h168.66v77H51.02Z"/></clipPath><clipPath id="M" clipPathUnits="userSpaceOnUse"><path d="M62.07 783h21.76v-60.88H62.07Z"/></clipPath><clipPath id="O" clipPathUnits="userSpaceOnUse"><path d="M72 783c-2.68-.02-4.64-.9-4.7-1.52 12.52-.4 13.52-9.17 1.28-31.3-4.64-8.4-6.48-16.12-6.5-21.3v-.2c0-3.27.76-5.5 2-6.2.42-.24.87-.35 1.32-.36h.07c1.94.03 3.73 2.06 2.48 4.66-1.57 3.23-.25 9.9 3.76 17.18 4 7.29 17.98 27.32 9.37 35.45a12.93 12.93 0 0 1-8.82 3.6z"/></clipPath><clipPath id="e" clipPathUnits="userSpaceOnUse"><path d="M-32768 32767h65535v-65535h-65535Z"/></clipPath><clipPath id="Q" clipPathUnits="userSpaceOnUse"><path d="M63.9 782.26h16.24v-58.67H63.9Z"/></clipPath><clipPath id="R" clipPathUnits="userSpaceOnUse"><path d="M63.9 723.6h16.24v58.66H63.9z"/></clipPath><clipPath id="S" clipPathUnits="userSpaceOnUse"><path d="M58.79 743.77h11.57V718.6H58.8Z"/></clipPath><clipPath id="U" clipPathUnits="userSpaceOnUse"><path d="M58.79 727.02c0-4.3 2-6.83 3.59-7.85a4.6 4.6 0 0 1 2.28-.57h.24c.37 0 .74.05 1.1.13 2.46.6 4.32 3.06 4.36 7.65v.33a26.87 26.87 0 0 1-.97 6.48 63.6 63.6 0 0 1-2.3 5.28c-.72 1.37-2.35 4.6-2.68 5.3-2.85-6.43-5.57-14.47-5.62-16.75"/></clipPath><clipPath id="g" clipPathUnits="userSpaceOnUse"><path d="M-32768 32767h65535v-65535h-65535Z"/></clipPath><clipPath id="W" clipPathUnits="userSpaceOnUse"><path d="M62.06 786.1H85.8v-41.54H62.06Z"/></clipPath><clipPath id="Y" clipPathUnits="userSpaceOnUse"><path d="M63.02 781.29a16 16 0 0 1-.96-2.69c.25.22.55.43.9.63.73.42 1.76.81 2.92.93 2.61.26 7.04-.4 8.73-5.17 1.79-5.03-2.02-14.84-5.44-21.94a569.1 569.1 0 0 0 4.81-8.49s8.62 14.84 8.7 15.02c2.6 5.2 5 14.94.99 21.47-1.43 2.33-3.48 4.07-3.55 4.13-.26-.04-.6-.1-.75-.19-1.8-1.08-1.18-1.96-7.59.78a4 4 0 0 1-1.63.33c-2.96 0-6.18-2.8-7.13-4.81"/></clipPath><clipPath id="i" clipPathUnits="userSpaceOnUse"><path d="M-32768 32767h65535v-65535h-65535Z"/></clipPath><clipPath id="aa" clipPathUnits="userSpaceOnUse"><path d="M59.45 785.64H86v-67.03H59.45Z"/></clipPath><clipPath id="ac" clipPathUnits="userSpaceOnUse"><path d="M70.16 785.64c-2.09-.01-4.42-1.72-5.3-2.7-1-1.13-2.55-3.38-2.8-4.34.83.72 2.24 1.4 3.82 1.56 2.61.26 7.04-.4 8.73-5.17 1.79-5.03-2.03-14.84-5.44-21.94l-.25-.5c-.34-.61-4.37-8.37-4.51-8.78-2.5-7.18-4.9-14.55-4.96-16.83 0-3.9 1.38-8.27 5.25-8.33h.17c.36 0 .73.04 1.14.13 3.68.75 4.6 6.77 4.05 9.88 0 0-1.2 5.04-1.25 5.15 0 0 7.32 14.68 7.85 15.6.65 1.15 5.94 10.03 6.03 10.21 2.58 5.2 3.52 11.27 3.27 15.04-.09 1.32-1.42 5.34-2.3 6.43-1.69 2.14-4.15 4.02-4.29 3.94-1.8-1.08-1.52-1.98-8.06.46a3.3 3.3 0 0 1-1.09.2z"/></clipPath><clipPath id="k" clipPathUnits="userSpaceOnUse"><path d="M-32768 32767h65535v-65535h-65535Z"/></clipPath><clipPath id="ae" clipPathUnits="userSpaceOnUse"><path d="M65.81 780.86c-.33-.03-1.52-.26-2.24-.5l-.39-.6-.23-.53a7.6 7.6 0 0 0 2.93.93c2.61.26 7.04-.4 8.73-5.17 1.79-5.03-2.03-14.84-5.44-21.94l-.23-.47c.55-.46.99-.8.99-.8.1.16.16.3.25.48 3.52 7.33 6.97 17.71 5.1 22.97a8.11 8.11 0 0 1-3.74 4.54c-.1.06-.77.39-1 .47a18.44 18.44 0 0 1-1.35.42 10.66 10.66 0 0 1-2.33.25c-.35 0-.7-.01-1.05-.05"/></clipPath><clipPath id="m" clipPathUnits="userSpaceOnUse"><path d="M-32768 32767h65535v-65535h-65535Z"/></clipPath><clipPath id="ah" clipPathUnits="userSpaceOnUse"><path d="M51.02 713.87h168.66v77H51.02Z"/></clipPath><clipPath id="aj" clipPathUnits="userSpaceOnUse"><path d="M51.02 713.87h168.66v77H51.02Z"/></clipPath><clipPath id="ak" clipPathUnits="userSpaceOnUse"><path d="M69.08 789.49c-.14-.01-6.6-.38-7.44-.63-1.33-.52-1.66-1.39-2.2-2.1-.33-.43-.55-.55-.85-.62l.71.16c.75.19 1.37.47 2.11.8.67.29 1.44.62 2.42 1.02.54.23 1.7.65 2.3.81.62.17 2.15.43 2.3.45l.82.11h-.17"/></clipPath><clipPath id="o" clipPathUnits="userSpaceOnUse"><path d="M-32768 32767h65535v-65535h-65535Z"/></clipPath><clipPath id="an" clipPathUnits="userSpaceOnUse"><path d="M51.02 713.87h168.66v77H51.02Z"/></clipPath><clipPath id="ao" clipPathUnits="userSpaceOnUse"><path d="m79.32 784.96.08.05c1.04.68 3.05 1.03 4.85-1.68-2.64 4.47-5.1 4.06-7.65 3.65-1.67-.27-3.38-.54-5.2.55 2.56-1.65 5.47-4.1 7.92-2.58"/></clipPath><clipPath id="q" clipPathUnits="userSpaceOnUse"><path d="M-32768 32767h65535v-65535h-65535Z"/></clipPath><clipPath id="ar" clipPathUnits="userSpaceOnUse"><path d="M51.02 713.87h168.66v77H51.02Z"/></clipPath><clipPath id="as" clipPathUnits="userSpaceOnUse"><path d="M71.14 790.4c-2.1-.03-5.43-.93-7.75-1.16-.73-.07-1.3-.2-1.75-.38 1.72.35 1.9 0 6.83.56l.8.08c1.14.07 2.24 0 3.16-.5a8.66 8.66 0 0 1 3.27-.98c.78-.09 1.54-.09 2.28-.08.48 0 .96 0 1.44-.03-1.96.45-5.33 1.73-6.97 2.33-.3.1-.66.16-1.1.16z"/></clipPath><clipPath id="s" clipPathUnits="userSpaceOnUse"><path d="M-32768 32767h65535v-65535h-65535Z"/></clipPath><clipPath id="av" clipPathUnits="userSpaceOnUse"><path d="M51.02 713.87h168.66v77H51.02Z"/></clipPath><clipPath id="aw" clipPathUnits="userSpaceOnUse"><path d="M56.26 783.3c-3.33-4.55-4.15-11.92-2.82-15.84 1.7-5 2.46-7.48 6.65-14.17.39-.62-2.17 9.62-2.73 12.1-.52 2.28-2.07 11.6 1.22 18.93.3.68.65 1.43 1.04 2.07a10.25 10.25 0 0 1-3.36-3.09"/></clipPath><clipPath id="u" clipPathUnits="userSpaceOnUse"><path d="M-32768 32767h65535v-65535h-65535Z"/></clipPath><clipPath id="az" clipPathUnits="userSpaceOnUse"><path d="M51.02 713.87h168.66v77H51.02Z"/></clipPath><clipPath id="aA" clipPathUnits="userSpaceOnUse"><path d="m63.07 758.46-.1.45.1-.45m-.22-12.85.44-.76.2-.35c5.64-9.85 14.47-17.04 9.5-24.81a8.83 8.83 0 0 0-1.67-2.1c.9.73 1.6.65 2.23.56.66-.1 1.24-.2 1.88.68.19.25.43.65.64 1.16.1.28.2.57.31.95 0 0 2.7-3.65 5.35-1 .9 2.97 1.25 7.44-2.7 12.29-4.5 5.52-7.31 6.08-10.94 12.3-2.88 4.93-4.6 12.07-5.02 13.93.42-2.02 1.94-10.1-.22-12.84"/></clipPath><clipPath id="w" clipPathUnits="userSpaceOnUse"><path d="M-32768 32767h65535v-65535h-65535Z"/></clipPath><clipPath id="aD" clipPathUnits="userSpaceOnUse"><path d="M57.58 781.04a39.53 39.53 0 0 1-.5-14.12c.35-2.33 2.07-7.42 2.47-9.87-1 7.83-4.72 22.82 7.21 28.5-2.84-.7-8.43-4.9-9.18-4.51"/></clipPath><clipPath id="y" clipPathUnits="userSpaceOnUse"><path d="M-32768 32767h65535v-65535h-65535Z"/></clipPath><clipPath id="aG" clipPathUnits="userSpaceOnUse"><path d="M71.14 790.4c-2.1-.03-5.43-.93-7.75-1.16-.73-.07-1.3-.2-1.75-.38-1.33-.52-1.66-1.39-2.2-2.1-.33-.43-.55-.55-.85-.62h-.02c-2.24-.81-7.55-7.36-6.4-16.38.08-.89.27-1.75.5-2.6 2.2-8.66 9.54-20.28 11.34-23.58-1.33-3.06-4.16-9.33-5.06-15.24a18.6 18.6 0 0 1-.27-2.7c-.13-3 .44-5.75 2.18-7.73l.36-.38a7.43 7.43 0 0 1 3-1.77c1.5-.64 2.63-.29 3.73-.1.5-.3 1-.53 1.53-.7a11.17 11.17 0 0 1 8.32.7c2.21.72 3.22 2.02 3.85 4.03.64 1.9 1.61 5.77-.6 11.5-.99 2.47-2.98 6.35-6.05 11.97l-.02.04c2.46 4.66 9.06 16.19 10.23 19.56l.18.52c1.99 5.1 3.3 11.86-.12 18.14l-1.02 1.91-.07.14c-2.76 5.05-2.85 4.1-4.57 4.4-.06 0-.13.03-.2.04-1.95.45-5.32 1.73-6.96 2.33-.3.1-.66.16-1.1.16zm2.15-44.42-.3.5c-3.8 6.82-7.88 12.76-10.1 18.35-.49 1.5-.87 3-1.11 4.42-.84 4.07-.49 6.47 1.07 9.76 1.5 3.18 6.02 7.14 8.56 5.93 2.78-1.34 4.31-1.65 5.32-1.53.97.12 1.46.65 2.1 1.18.14.12.46.34.5.36a15.43 15.43 0 0 0 3.45-3.88c7.63-11.53-4.97-29.18-9.06-35.8-.27.46-.43.7-.43.7m-9.39-26.53a3.9 3.9 0 0 0-1.69.68 4.34 4.34 0 0 0-1.62 2.19c-.9 2.66-.7 7.96 4.05 19.95l1.16-2.5a31.93 31.93 0 0 0 3.42-13.73c-.3-3.84-2.15-6.17-4.23-6.56a4.28 4.28 0 0 0-1.08-.03"/></clipPath><clipPath id="A" clipPathUnits="userSpaceOnUse"><path d="M-32768 32767h65535v-65535h-65535Z"/></clipPath><clipPath id="aJ" clipPathUnits="userSpaceOnUse"><path d="M71.24 790.4c-2.1 0-5.5-.93-7.85-1.16-.73-.07-1.3-.2-1.75-.38-1.33-.52-1.66-1.39-2.2-2.1-.33-.43-.55-.56-.85-.62h-.02c-2.24-.81-7.55-7.36-6.4-16.38.08-.89.27-1.75.5-2.6 2.2-8.66 9.54-20.28 11.34-23.58-1.33-3.06-4.16-9.33-5.06-15.24a18.6 18.6 0 0 1-.27-2.7c-.13-3 .44-5.75 2.18-7.73l.36-.38a7.43 7.43 0 0 1 3-1.77c1.5-.64 2.63-.29 3.73-.1.5-.3 1-.53 1.53-.7a9.8 9.8 0 0 1 3.25-.51c2.07.01 3.98.6 5.07 1.21 2.21.72 3.22 2.02 3.85 4.03.64 1.9 1.61 5.77-.6 11.5-.99 2.47-2.98 6.35-6.05 11.97l-.02.04c2.46 4.66 9.06 16.19 10.23 19.56l.18.52c1.99 5.1 3.3 11.86-.12 18.14l-1.02 1.91-.07.14c-2.76 5.05-2.85 4.1-4.57 4.4-.06 0-.13.03-.2.04-1.95.45-5.32 1.73-6.96 2.33a3.4 3.4 0 0 1-1.19.17zm2.05-44.42-.3.5c-3.8 6.82-7.88 12.76-10.1 18.35-.49 1.5-.87 3-1.11 4.42-.84 4.07-.49 6.47 1.07 9.76 1.5 3.18 6.02 7.14 8.56 5.93 2.78-1.34 4.31-1.65 5.32-1.53.97.12 1.46.65 2.1 1.18.14.12.46.34.5.36a15.43 15.43 0 0 0 3.45-3.88c7.63-11.53-4.97-29.18-9.06-35.8-.27.46-.43.7-.43.7m-9.39-26.53a3.9 3.9 0 0 0-1.69.68 4.34 4.34 0 0 0-1.62 2.19c-.9 2.66-.7 7.96 4.05 19.95l1.16-2.5a31.93 31.93 0 0 0 3.42-13.73c-.3-3.84-2.15-6.17-4.23-6.56a4.28 4.28 0 0 0-1.08-.03"/></clipPath><clipPath id="C" clipPathUnits="userSpaceOnUse"><path d="M-32768 32767h65535v-65535h-65535Z"/></clipPath><clipPath id="aM" clipPathUnits="userSpaceOnUse"><path d="M51.02 713.87h168.66v77H51.02Z"/></clipPath><clipPath id="aN" clipPathUnits="userSpaceOnUse"><path d="M54.94 763.32h22.44v-40.88H54.94Z"/></clipPath><clipPath id="aT" clipPathUnits="userSpaceOnUse"><path d="M51.02 713.87h168.66v77H51.02Z"/></clipPath><clipPath id="aU" clipPathUnits="userSpaceOnUse"><path d="M69.24 744.07h12.81V726H69.24Z"/></clipPath><linearGradient id="b" spreadMethod="pad" gradientTransform="scale(19.38826 -19.38826) rotate(-67.66 -27.15 -21.75)" gradientUnits="userSpaceOnUse" y2="0" x2="1" y1="0" x1="0"><stop offset="0" style="stop-opacity:1;stop-color:#fff"/><stop offset=".57" style="stop-opacity:0;stop-color:#fff"/><stop offset="1" style="stop-opacity:0;stop-color:#fff"/></linearGradient><linearGradient id="G" spreadMethod="pad" gradientTransform="scale(19.38826 -19.38826) rotate(-67.66 -27.15 -21.75)" gradientUnits="userSpaceOnUse" y2="0" x2="1" y1="0" x1="0"><stop offset="0" style="stop-opacity:1;stop-color:#858380"/><stop offset="1" style="stop-opacity:1;stop-color:#a19f9c"/></linearGradient><linearGradient id="d" spreadMethod="pad" gradientTransform="scale(28.19952 -28.19952) rotate(69.27 21.5 -12.29)" gradientUnits="userSpaceOnUse" y2="0" x2="1" y1="0" x1="0"><stop offset="0" style="stop-opacity:1;stop-color:#fff"/><stop offset=".57" style="stop-opacity:0;stop-color:#fff"/><stop offset="1" style="stop-opacity:0;stop-color:#fff"/></linearGradient><linearGradient id="K" spreadMethod="pad" gradientTransform="scale(28.19952 -28.19952) rotate(69.27 21.5 -12.29)" gradientUnits="userSpaceOnUse" y2="0" x2="1" y1="0" x1="0"><stop offset="0" style="stop-opacity:1;stop-color:#9d9b98"/><stop offset="1" style="stop-opacity:1;stop-color:#797775"/></linearGradient><linearGradient id="f" spreadMethod="pad" gradientTransform="scale(-58.1505 58.1505) rotate(-59.91 10.82 7.78)" gradientUnits="userSpaceOnUse" y2="0" x2="1" y1="0" x1="0"><stop offset="0" style="stop-opacity:.8;stop-color:#fff"/><stop offset=".16" style="stop-opacity:.8;stop-color:#fff"/><stop offset=".84" style="stop-opacity:1;stop-color:#fff"/><stop offset="1" style="stop-opacity:1;stop-color:#fff"/></linearGradient><linearGradient id="P" spreadMethod="pad" gradientTransform="scale(-58.1505 58.1505) rotate(-59.91 10.82 7.78)" gradientUnits="userSpaceOnUse" y2="0" x2="1" y1="0" x1="0"><stop offset="0" style="stop-opacity:1;stop-color:#797775"/><stop offset=".84" style="stop-opacity:1;stop-color:#f2efea"/><stop offset="1" style="stop-opacity:1;stop-color:#f2efea"/></linearGradient><linearGradient id="h" spreadMethod="pad" gradientTransform="matrix(0 58.21427 58.21427 0 64.58 721.92)" gradientUnits="userSpaceOnUse" y2="0" x2="1" y1="0" x1="0"><stop offset="0" style="stop-opacity:1;stop-color:#fff"/><stop offset=".02" style="stop-opacity:1;stop-color:#fff"/><stop offset="1" style="stop-opacity:.8;stop-color:#fff"/></linearGradient><linearGradient id="V" spreadMethod="pad" gradientTransform="matrix(0 58.21426 58.21426 0 64.58 721.92)" gradientUnits="userSpaceOnUse" y2="0" x2="1" y1="0" x1="0"><stop offset="0" style="stop-opacity:1;stop-color:#9d9b98"/><stop offset="1" style="stop-opacity:1;stop-color:#f2efea"/></linearGradient><linearGradient id="j" spreadMethod="pad" gradientTransform="scale(-44.86032 44.86032) rotate(70.22 -12.75 6.96)" gradientUnits="userSpaceOnUse" y2="0" x2="1" y1="0" x1="0"><stop offset="0" style="stop-opacity:1;stop-color:#fff"/><stop offset=".02" style="stop-opacity:1;stop-color:#fff"/><stop offset="1" style="stop-opacity:.8;stop-color:#fff"/></linearGradient><linearGradient id="Z" spreadMethod="pad" gradientTransform="scale(-44.86033 44.86033) rotate(70.22 -12.75 6.96)" gradientUnits="userSpaceOnUse" y2="0" x2="1" y1="0" x1="0"><stop offset="0" style="stop-opacity:1;stop-color:#9d9b98"/><stop offset="1" style="stop-opacity:1;stop-color:#f2efea"/></linearGradient><linearGradient id="l" spreadMethod="pad" gradientTransform="scale(-68.17165 68.17165) rotate(70.22 -8.12 4.4)" gradientUnits="userSpaceOnUse" y2="0" x2="1" y1="0" x1="0"><stop offset="0" style="stop-opacity:1;stop-color:#fff"/><stop offset=".02" style="stop-opacity:1;stop-color:#fff"/><stop offset="1" style="stop-opacity:0;stop-color:#fff"/></linearGradient><linearGradient id="ad" spreadMethod="pad" gradientTransform="scale(-68.17165 68.17165) rotate(70.22 -8.12 4.4)" gradientUnits="userSpaceOnUse" y2="0" x2="1" y1="0" x1="0"><stop offset="0" style="stop-opacity:1;stop-color:#44433e"/><stop offset="1" style="stop-opacity:1;stop-color:#f2efea"/></linearGradient><linearGradient id="n" spreadMethod="pad" gradientTransform="matrix(0 -28.636 -28.636 0 69.38 781.5)" gradientUnits="userSpaceOnUse" y2="0" x2="1" y1="0" x1="0"><stop offset="0" style="stop-opacity:.2;stop-color:#fff"/><stop offset="1" style="stop-opacity:.8;stop-color:#fff"/></linearGradient><linearGradient id="ag" spreadMethod="pad" gradientTransform="matrix(0 -28.636 -28.636 0 69.38 781.5)" gradientUnits="userSpaceOnUse" y2="0" x2="1" y1="0" x1="0"><stop offset="0" style="stop-opacity:1;stop-color:#f2efea"/><stop offset="1" style="stop-opacity:1;stop-color:#f2efea"/></linearGradient><linearGradient id="ai" spreadMethod="pad" gradientTransform="matrix(9.3658 6.06715 6.06715 -9.3658 60.41 782.83)" gradientUnits="userSpaceOnUse" y2="0" x2="1" y1="0" x1="0"><stop offset="0" style="stop-opacity:1;stop-color:#faf6f2"/><stop offset="1" style="stop-opacity:1;stop-color:#fffbf7"/></linearGradient><linearGradient id="p" spreadMethod="pad" gradientTransform="matrix(10.6555 0 0 -10.6555 58.6 787.82)" gradientUnits="userSpaceOnUse" y2="0" x2="1" y1="0" x1="0"><stop offset="0" style="stop-opacity:.8;stop-color:#fff"/><stop offset=".09" style="stop-opacity:.8;stop-color:#fff"/><stop offset="1" style="stop-opacity:0;stop-color:#fff"/></linearGradient><linearGradient id="am" spreadMethod="pad" gradientTransform="matrix(10.6555 0 0 -10.6555 58.6 787.82)" gradientUnits="userSpaceOnUse" y2="0" x2="1" y1="0" x1="0"><stop offset="0" style="stop-opacity:1;stop-color:#b0aeab"/><stop offset="1" style="stop-opacity:1;stop-color:#faf6f2"/></linearGradient><linearGradient id="r" spreadMethod="pad" gradientTransform="scale(-16.59185 16.59185) rotate(28.48 -95.4 13.35)" gradientUnits="userSpaceOnUse" y2="0" x2="1" y1="0" x1="0"><stop offset="0" style="stop-opacity:.8;stop-color:#fff"/><stop offset=".05" style="stop-opacity:.8;stop-color:#fff"/><stop offset=".53" style="stop-opacity:.60222782;stop-color:#fff"/><stop offset=".54" style="stop-opacity:.60222782;stop-color:#fff"/><stop offset="1" style="stop-opacity:.4;stop-color:#fff"/></linearGradient><linearGradient id="aq" spreadMethod="pad" gradientTransform="scale(-16.59185 16.59185) rotate(28.48 -95.4 13.35)" gradientUnits="userSpaceOnUse" y2="0" x2="1" y1="0" x1="0"><stop offset="0" style="stop-opacity:1;stop-color:#fffbf7"/><stop offset=".53" style="stop-opacity:1;stop-color:#fffbf7"/><stop offset="1" style="stop-opacity:1;stop-color:#b4b2af"/></linearGradient><linearGradient id="t" spreadMethod="pad" gradientTransform="matrix(17.77977 0 0 -17.77977 61.64 789.16)" gradientUnits="userSpaceOnUse" y2="0" x2="1" y1="0" x1="0"><stop offset="0" style="stop-opacity:1;stop-color:#fff"/><stop offset=".09" style="stop-opacity:1;stop-color:#fff"/><stop offset="1" style="stop-opacity:0;stop-color:#fff"/></linearGradient><linearGradient id="au" spreadMethod="pad" gradientTransform="matrix(17.77977 0 0 -17.77977 61.64 789.16)" gradientUnits="userSpaceOnUse" y2="0" x2="1" y1="0" x1="0"><stop offset="0" style="stop-opacity:1;stop-color:#ccc9c6"/><stop offset="1" style="stop-opacity:1;stop-color:#faf6f2"/></linearGradient><linearGradient id="v" spreadMethod="pad" gradientTransform="scale(-33.04783 33.04783) rotate(-86.7 11.73 12.83)" gradientUnits="userSpaceOnUse" y2="0" x2="1" y1="0" x1="0"><stop offset="0" style="stop-opacity:.8;stop-color:#fff"/><stop offset=".09" style="stop-opacity:.8;stop-color:#fff"/><stop offset="1" style="stop-opacity:0;stop-color:#fff"/></linearGradient><linearGradient id="ay" spreadMethod="pad" gradientTransform="scale(-33.04783 33.04783) rotate(-86.7 11.73 12.83)" gradientUnits="userSpaceOnUse" y2="0" x2="1" y1="0" x1="0"><stop offset="0" style="stop-opacity:1;stop-color:#fffbf7"/><stop offset="1" style="stop-opacity:1;stop-color:#fffbf7"/></linearGradient><linearGradient id="x" spreadMethod="pad" gradientTransform="matrix(19.46636 0 0 -19.46636 62.85 738.25)" gradientUnits="userSpaceOnUse" y2="0" x2="1" y1="0" x1="0"><stop offset="0" style="stop-opacity:1;stop-color:#fff"/><stop offset=".09" style="stop-opacity:1;stop-color:#fff"/><stop offset="1" style="stop-opacity:0;stop-color:#fff"/></linearGradient><linearGradient id="aC" spreadMethod="pad" gradientTransform="matrix(19.46636 0 0 -19.46636 62.85 738.25)" gradientUnits="userSpaceOnUse" y2="0" x2="1" y1="0" x1="0"><stop offset="0" style="stop-opacity:1;stop-color:#dad7d3"/><stop offset="1" style="stop-opacity:1;stop-color:#faf6f2"/></linearGradient><linearGradient id="z" spreadMethod="pad" gradientTransform="matrix(-.65218 12.3262 12.3262 .65218 62.37 766.1)" gradientUnits="userSpaceOnUse" y2="0" x2="1" y1="0" x1="0"><stop offset="0" style="stop-opacity:1;stop-color:#fff"/><stop offset=".09" style="stop-opacity:1;stop-color:#fff"/><stop offset="1" style="stop-opacity:0;stop-color:#fff"/></linearGradient><linearGradient id="aF" spreadMethod="pad" gradientTransform="matrix(-.65218 12.3262 12.3262 .65218 62.37 766.1)" gradientUnits="userSpaceOnUse" y2="0" x2="1" y1="0" x1="0"><stop offset="0" style="stop-opacity:1;stop-color:#bbb8b5"/><stop offset="1" style="stop-opacity:1;stop-color:#faf6f2"/></linearGradient><linearGradient id="B" spreadMethod="pad" gradientTransform="matrix(0 -66.26896 -66.26896 0 69.7 783.97)" gradientUnits="userSpaceOnUse" y2="0" x2="1" y1="0" x1="0"><stop offset="0" style="stop-opacity:0;stop-color:#fff"/><stop offset=".02" style="stop-opacity:0;stop-color:#fff"/><stop offset=".51" style="stop-opacity:1;stop-color:#fff"/><stop offset=".98" style="stop-opacity:0;stop-color:#fff"/><stop offset="1" style="stop-opacity:0;stop-color:#fff"/></linearGradient><linearGradient id="aI" spreadMethod="pad" gradientTransform="matrix(0 -66.26895 -66.26895 0 69.7 783.97)" gradientUnits="userSpaceOnUse" y2="0" x2="1" y1="0" x1="0"><stop offset="0" style="stop-opacity:1;stop-color:#dad7d3"/><stop offset=".51" style="stop-opacity:1;stop-color:#fffbf7"/><stop offset="1" style="stop-opacity:1;stop-color:#eeebe7"/></linearGradient><linearGradient id="D" spreadMethod="pad" gradientTransform="matrix(0 -66.26886 -66.26886 0 69.7 787.85)" gradientUnits="userSpaceOnUse" y2="0" x2="1" y1="0" x1="0"><stop offset="0" style="stop-opacity:0;stop-color:#fff"/><stop offset=".02" style="stop-opacity:0;stop-color:#fff"/><stop offset=".51" style="stop-opacity:1;stop-color:#fff"/><stop offset=".98" style="stop-opacity:0;stop-color:#fff"/><stop offset="1" style="stop-opacity:0;stop-color:#fff"/></linearGradient><linearGradient id="aL" spreadMethod="pad" gradientTransform="matrix(0 -66.26886 -66.26886 0 69.7 787.85)" gradientUnits="userSpaceOnUse" y2="0" x2="1" y1="0" x1="0"><stop offset="0" style="stop-opacity:1;stop-color:#dad7d3"/><stop offset=".51" style="stop-opacity:1;stop-color:#fffbf7"/><stop offset="1" style="stop-opacity:1;stop-color:#eeebe7"/></linearGradient><linearGradient id="aO" spreadMethod="pad" gradientTransform="scale(-39.31719 39.31719) rotate(76.33 -12.6 7.99)" gradientUnits="userSpaceOnUse" y2="0" x2="1" y1="0" x1="0"><stop offset="0" style="stop-opacity:1;stop-color:#faf6f2"/><stop offset=".51" style="stop-opacity:1;stop-color:#fffbf7"/><stop offset=".68" style="stop-opacity:1;stop-color:#fffbf7"/><stop offset=".9" style="stop-opacity:1;stop-color:#ebe7e3"/><stop offset="1" style="stop-opacity:1;stop-color:#ccc9c6"/></linearGradient><linearGradient id="aP" spreadMethod="pad" gradientTransform="scale(-12.50247 12.50247) rotate(-59.91 51.8 35.44)" gradientUnits="userSpaceOnUse" y2="0" x2="1" y1="0" x1="0"><stop offset="0" style="stop-opacity:1;stop-color:#791426"/><stop offset=".53" style="stop-opacity:1;stop-color:#af1c3b"/><stop offset="1" style="stop-opacity:1;stop-color:#791426"/></linearGradient><linearGradient id="aQ" spreadMethod="pad" gradientTransform="scale(-12.5033 12.5033) rotate(-59.91 51.9 35.38)" gradientUnits="userSpaceOnUse" y2="0" x2="1" y1="0" x1="0"><stop offset="0" style="stop-opacity:1;stop-color:#791426"/><stop offset=".53" style="stop-opacity:1;stop-color:#af1c3b"/><stop offset="1" style="stop-opacity:1;stop-color:#791426"/></linearGradient><linearGradient id="aR" spreadMethod="pad" gradientTransform="scale(-12.50216 12.50216) rotate(-59.91 51.65 35.53)" gradientUnits="userSpaceOnUse" y2="0" x2="1" y1="0" x1="0"><stop offset="0" style="stop-opacity:1;stop-color:#791426"/><stop offset=".53" style="stop-opacity:1;stop-color:#af1c3b"/><stop offset="1" style="stop-opacity:1;stop-color:#791426"/></linearGradient><linearGradient id="aS" spreadMethod="pad" gradientTransform="scale(60.94679 -60.94679) rotate(-67.17 -8.06 -6.46)" gradientUnits="userSpaceOnUse" y2="0" x2="1" y1="0" x1="0"><stop offset="0" style="stop-opacity:1;stop-color:#791426"/><stop offset=".53" style="stop-opacity:1;stop-color:#af1c3b"/><stop offset="1" style="stop-opacity:1;stop-color:#791426"/></linearGradient><linearGradient id="aV" spreadMethod="pad" gradientTransform="scale(67.58574 -67.58574) rotate(65.92 9.16 -4.93)" gradientUnits="userSpaceOnUse" y2="0" x2="1" y1="0" x1="0"><stop offset="0" style="stop-opacity:1;stop-color:#791426"/><stop offset=".53" style="stop-opacity:1;stop-color:#af1c3b"/><stop offset="1" style="stop-opacity:1;stop-color:#791426"/></linearGradient><mask id="F" height="1" width="1" y="0" x="0" maskUnits="userSpaceOnUse"><g clip-path="url(#a)"><path style="fill:url(#b);stroke:none" d="M47.88 751.1 65.51 794l34.63-14.24-17.63-42.9Z"/></g></mask><mask id="J" height="1" width="1" y="0" x="0" maskUnits="userSpaceOnUse"><g clip-path="url(#c)"><path style="fill:url(#d);stroke:none" d="m83.33 793.64 16.72-44.17-34.94-13.23-16.73 44.17Z"/></g></mask><mask id="N" height="1" width="1" y="0" x="0" maskUnits="userSpaceOnUse"><g clip-path="url(#e)"><path style="fill:url(#f);stroke:none" d="M117.36 768.95 82.45 708.7 33.2 737.22l34.91 60.26z"/></g></mask><mask id="T" height="1" width="1" y="0" x="0" maskUnits="userSpaceOnUse"><g clip-path="url(#g)"><path style="fill:url(#h);stroke:none" d="M58.79 743.77h12.97v-25.36H58.79Z"/></g></mask><mask id="X" height="1" width="1" y="0" x="0" maskUnits="userSpaceOnUse"><g clip-path="url(#i)"><path style="fill:url(#j);stroke:none" d="m65 736.4-16.52 45.9 36.27 13.05 16.51-45.9z"/></g></mask><mask id="ab" height="1" width="1" y="0" x="0" maskUnits="userSpaceOnUse"><g clip-path="url(#k)"><path style="fill:url(#l);stroke:none" d="m62.51 709.22-24.9 69.23 45.53 16.38 24.9-69.23z"/></g></mask><mask id="af" height="1" width="1" y="0" x="0" maskUnits="userSpaceOnUse"><g clip-path="url(#m)"><path style="fill:url(#n);stroke:none" d="M77.15 751.77h-14.2v29.14h14.2z"/></g></mask><mask id="al" height="1" width="1" y="0" x="0" maskUnits="userSpaceOnUse"><g clip-path="url(#o)"><path style="fill:url(#p);stroke:none" d="M58.6 789.5h10.65v-3.36H58.59Z"/></g></mask><mask id="ap" height="1" width="1" y="0" x="0" maskUnits="userSpaceOnUse"><g clip-path="url(#q)"><path style="fill:url(#r);stroke:none" d="m81.33 777.95-11.8 6.4 4.8 8.84 11.8-6.4z"/></g></mask><mask id="at" height="1" width="1" y="0" x="0" maskUnits="userSpaceOnUse"><g clip-path="url(#s)"><path style="fill:url(#t);stroke:none" d="M61.64 790.4h17.78v-2.49H61.64z"/></g></mask><mask id="ax" height="1" width="1" y="0" x="0" maskUnits="userSpaceOnUse"><g clip-path="url(#u)"><path style="fill:url(#v);stroke:none" d="m62.42 786.28-1.97-34.1-10.28.6 1.96 34.1z"/></g></mask><mask id="aB" height="1" width="1" y="0" x="0" maskUnits="userSpaceOnUse"><g clip-path="url(#w)"><path style="fill:url(#x);stroke:none" d="M62.85 758.91h20.13V717.3H62.85Z"/></g></mask><mask id="aE" height="1" width="1" y="0" x="0" maskUnits="userSpaceOnUse"><g clip-path="url(#y)"><path style="fill:url(#z);stroke:none" d="m54.86 756.42-1.54 29.05 13.4.7 1.54-29.04z"/></g></mask><mask id="aH" height="1" width="1" y="0" x="0" maskUnits="userSpaceOnUse"><g clip-path="url(#A)"><path style="fill:url(#B);stroke:none" d="M90.41 713.87H51.02v76.54h39.4z"/></g></mask><mask id="aK" height="1" width="1" y="0" x="0" maskUnits="userSpaceOnUse"><g clip-path="url(#C)"><path style="fill:url(#D);stroke:none" d="M90.41 714.44H51.02v75.97h39.4z"/></g></mask></defs><path style="fill:#fff;fill-opacity:1;fill-rule:nonzero;stroke:none" d="M0 0c-2.5 4.19-4.8 8.06-6.28 11.78-.49 1.51-.87 3-1.1 4.42-.85 4.08-.5 6.47 1.06 9.77l.1.21c.75.42 1.77.82 2.94.93 2.6.26 7.03-.4 8.72-5.16C7.23 16.92 3.42 7.1 0 0m16.1 28.37-1.02 1.92-.07.13c-2.76 5.06-2.85 4.1-4.57 4.4l-.2.05c-1.95.45-5.31 1.72-6.96 2.33-1.7.62-6.17-.72-9.05-1-.74-.07-1.3-.2-1.76-.39-1.33-.51-1.66-1.39-2.2-2.1-.33-.42-.55-.55-.85-.62h-.01c-2.25-.8-7.55-7.35-6.4-16.38.07-.89.26-1.75.5-2.6C-14.3 5.46-6.96-6.16-5.16-9.46c-1.32-3.05-4.16-9.33-5.06-15.24a18.6 18.6 0 0 1-.27-2.7c-.12-3 .44-5.75 2.18-7.72l.36-.39a7.42 7.42 0 0 1 3-1.77c1.5-.64 2.63-.28 3.73-.1.5-.3 1-.52 1.53-.7a11.17 11.17 0 0 1 8.32.7c2.21.72 3.22 2.02 3.85 4.04.64 1.9 1.62 5.77-.6 11.5-.98 2.47-2.98 6.34-6.05 11.97l-.02.03c2.47 4.66 9.06 16.2 10.23 19.57.07.17.12.35.18.52 2 5.1 3.3 11.85-.12 18.13" transform="matrix(.72827 0 0 -.72827 32.22 27.47)"/><path style="fill:#aca9a6;fill-opacity:1;fill-rule:nonzero;stroke:none" d="M0 0c-.71 1.37-2.27 4.36-2.6 5.07a45.32 45.32 0 0 1-4.56-17.15c.03-1.74 0-4.4 2.47-5.52C-1.41-13.14-7.16-6.46 0 0" transform="matrix(.72827 0 0 -.72827 30.85 38.86)"/><path style="fill:#aca9a6;fill-opacity:1;fill-rule:nonzero;stroke:none" d="M0 0c.85 4.2 2.96 7.78.28 13.62-2.2 4.8-6 6.53-10 5.62 2.62.26 7.04-.4 8.73-5.16C.81 9.05-3-.76-6.43-7.87l-.24-.5c1.66-2.88 3.02-5.36 4.64-8.3 0 0 2.19 3.53 3.1 5.13A20.09 20.09 0 0 0 0 0" transform="matrix(.72827 0 0 -.72827 36.9 21.74)"/><path style="fill:#bcbab7;fill-opacity:1;fill-rule:nonzero;stroke:none" d="M0 0v.64a19.3 19.3 0 0 1-.14 1.62c-.06.44-.14.77-.2 1A11.6 11.6 0 0 1-2.3 6.45C-4 8.58-6.12 10.54-6.18 10.6a4.27 4.27 0 0 1-.42-.21c-1.8-1.09-1.77-2.56-8.05.45-.95.46-2.44.17-3.27.11C-11.55 6.22-4.57 6.42 0 0" transform="matrix(.72827 0 0 -.72827 44.44 11.76)"/><path style="fill:#ccc9c6;fill-opacity:1;fill-rule:nonzero;stroke:none" d="m0 0 .66 1.02a22.02 22.02 0 0 1 .95 1.72C4.19 7.94 4.9 14 4.88 17.78c-3.24 9.4-12.67 5.2-15.7 11.07l-2.36-.14c.15-.2.3-.38.47-.56 1.2-1.37 4-4.15 7.02-4.86 3.02-.7 5.55-1.14 8.1-4.94 2.55-3.8-.16-9.15-2.55-14.4-.95-2.1-1.05-4.2-1.19-6.28.4.53.48 1.16.94 1.77L0 0" transform="matrix(.72827 0 0 -.72827 40.9 24.71)"/><path style="fill:#bbb8b5;fill-opacity:1;fill-rule:nonzero;stroke:none" d="M0 0c-2.55 3.8-5.08 4.24-8.1 4.95-3.02.7-5.82 3.48-7.02 4.85-.16.18-.32.37-.46.56-2.09-.2-3.76-1.87-4.88-4.26-.39-.82-.71-1.73-.97-2.69.83.73 2.25 1.4 3.83 1.56 3.98.9 7.78-.82 9.99-5.62 2.68-5.84.57-9.43-.28-13.62-.53-2.62-.8-7.23 1.06-11.54.65 1.14 1.35 2.71 3.1 5.12.13 2.09.23 4.2 1.18 6.29C-.16-9.15 2.55-3.8 0 0" transform="matrix(.72827 0 0 -.72827 42.64 11.35)"/><g clip-path="url(#E)" transform="matrix(.72827 0 0 -.72827 -18.16 575.9)"><g mask="url(#F)"><path d="m68.05 785.56-.15-.01c-2.08-.2-3.75-1.87-4.88-4.26a17 17 0 0 1-.96-2.69c.25.22.55.43.9.63.73.42 1.76.81 2.93.93 2.6.26 7.03-.4 8.72-5.17 1.79-5.03-2.02-14.84-5.44-21.94 1.66-2.89 2.67-4.71 4.55-7.78 0 0 8.13 12.39 8.23 12.57 2.58 5.2 4.01 11.58 3.63 16.68-.61 8.2-5.73 10.62-5.8 10.68a4.15 4.15 0 0 1-.4-.2c-1.82-1.1-1.87-2.82-8.15.19-.68.32-1.57.4-2.33.4-.32 0-.6-.01-.85-.03" style="fill:url(#G);stroke:none"/></g></g><g clip-path="url(#H)" transform="matrix(.72827 0 0 -.72827 -18.16 575.9)"><path d="M0 0c-2.81-3.93-7.14-24.9-.85-24.17C9-22.8 1.3-2.67 0 0" style="fill:#9a9794;fill-opacity:1;fill-rule:nonzero;stroke:none" transform="translate(65.42 743.22)"/></g><g clip-path="url(#I)" transform="matrix(.72827 0 0 -.72827 -18.16 575.9)"><g mask="url(#J)"><path d="m68.05 785.56-.15-.01c-2.08-.2-3.75-1.87-4.88-4.26a17 17 0 0 1-.96-2.69c.25.22.55.43.9.63.73.42 1.76.81 2.93.93 2.6.26 7.03-.4 8.72-5.17 1.79-5.03-2.02-14.84-5.44-21.94 1.66-2.89 3.09-5.83 4.71-8.76 0 0 8.72 15.1 8.8 15.3 2.6 5.2 3.7 11.28 3.28 15.03-.43 3.8-1.18 5.17-2.11 6.58-.33.49-4 3.94-4.07 4a4.15 4.15 0 0 1-.4-.2c-1.82-1.1-1.87-2.82-8.16.19a5.7 5.7 0 0 1-2.33.4c-.3 0-.6-.01-.84-.03" style="fill:url(#K);stroke:none"/></g></g><g clip-path="url(#L)" transform="matrix(.72827 0 0 -.72827 -18.16 575.9)"><g clip-path="url(#M)" style="opacity:.27999902"><g mask="url(#N)" clip-path="url(#O)"><path d="M72 783c-2.68-.02-4.64-.9-4.7-1.52 12.52-.4 13.52-9.17 1.28-31.3-4.64-8.4-6.48-16.12-6.5-21.3v-.2c0-3.27.76-5.5 2-6.2.42-.24.87-.35 1.32-.36h.07c1.94.03 3.73 2.06 2.48 4.66-1.57 3.23-.25 9.9 3.76 17.18 4 7.29 17.98 27.32 9.37 35.45a12.93 12.93 0 0 1-8.82 3.6z" style="fill:url(#P);stroke:none"/></g></g><g clip-path="url(#Q)" style="opacity:.33000201"><g clip-path="url(#R)"><path d="M0 0a12.94 12.94 0 0 0 4.4.48C5.9.38 7.38 0 8.7-.71A8.9 8.9 0 0 0 12-3.79a12.14 12.14 0 0 0 1.62-4.23c.61-2.99.33-6.08-.29-9.02a50.46 50.46 0 0 0-2.73-8.57 110.27 110.27 0 0 0-3.77-8.1L4.8-37.63l-2-3.95a57.67 57.67 0 0 1-3.37-8.04 20 20 0 0 1-.82-4.21 9.36 9.36 0 0 1 .64-4.24l-.17-.09a8.85 8.85 0 0 0-1.34 4.32c-.1 1.53.08 3.07.39 4.55.3 1.5.75 2.94 1.24 4.36a58.6 58.6 0 0 0 1.66 4.17c2.4 5.47 5.23 10.66 7.73 15.95a81.2 81.2 0 0 1 1.78 4 42.23 42.23 0 0 1 1.47 4.1c.82 2.78 1.29 5.7.86 8.56a11.65 11.65 0 0 1-1.37 4.07 8.46 8.46 0 0 1-2.99 3.05A10.18 10.18 0 0 1 4.4.28 13.06 13.06 0 0 1 0-.02Z" style="fill:#797775;fill-opacity:1;fill-rule:nonzero;stroke:none" transform="translate(66.18 781.75)"/></g></g><g clip-path="url(#S)" style="opacity:.55000299"><g mask="url(#T)" clip-path="url(#U)"><path d="M58.79 727.02c0-4.3 2-6.83 3.59-7.85a4.6 4.6 0 0 1 2.28-.57h.24c.37 0 .74.05 1.1.13 2.46.6 4.32 3.06 4.36 7.65v.33a26.87 26.87 0 0 1-.97 6.48 63.6 63.6 0 0 1-2.3 5.28c-.72 1.37-2.35 4.6-2.68 5.3-2.85-6.43-5.57-14.47-5.62-16.75" style="fill:url(#V);stroke:none"/></g></g><g clip-path="url(#W)" style="opacity:.44000202"><g mask="url(#X)" clip-path="url(#Y)"><path d="M63.02 781.29a16 16 0 0 1-.96-2.69c.25.22.55.43.9.63.73.42 1.76.81 2.92.93 2.61.26 7.04-.4 8.73-5.17 1.79-5.03-2.02-14.84-5.44-21.94a569.1 569.1 0 0 0 4.81-8.49s8.62 14.84 8.7 15.02c2.6 5.2 5 14.94.99 21.47-1.43 2.33-3.48 4.07-3.55 4.13-.26-.04-.6-.1-.75-.19-1.8-1.08-1.18-1.96-7.59.78a4 4 0 0 1-1.63.33c-2.96 0-6.18-2.8-7.13-4.81" style="fill:url(#Z);stroke:none"/></g></g><g clip-path="url(#aa)" style="opacity:.44000202"><g mask="url(#ab)" clip-path="url(#ac)"><path d="M70.16 785.64c-2.09-.01-4.42-1.72-5.3-2.7-1-1.13-2.55-3.38-2.8-4.34.83.72 2.24 1.4 3.82 1.56 2.61.26 7.04-.4 8.73-5.17 1.79-5.03-2.03-14.84-5.44-21.94l-.25-.5c-.34-.61-4.37-8.37-4.51-8.78-2.5-7.18-4.9-14.55-4.96-16.83 0-3.9 1.38-8.27 5.25-8.33h.17c.36 0 .73.04 1.14.13 3.68.75 4.6 6.77 4.05 9.88 0 0-1.2 5.04-1.25 5.15 0 0 7.32 14.68 7.85 15.6.65 1.15 5.94 10.03 6.03 10.21 2.58 5.2 3.52 11.27 3.27 15.04-.09 1.32-1.42 5.34-2.3 6.43-1.69 2.14-4.15 4.02-4.29 3.94-1.8-1.08-1.52-1.98-8.06.46a3.3 3.3 0 0 1-1.09.2z" style="fill:url(#ad);stroke:none"/></g></g></g><g clip-path="url(#ae)" transform="matrix(.72827 0 0 -.72827 -18.16 575.9)"><g mask="url(#af)"><path d="M65.81 780.86c-.33-.03-1.52-.26-2.24-.5l-.39-.6-.23-.53a7.6 7.6 0 0 0 2.93.93c2.61.26 7.04-.4 8.73-5.17 1.79-5.03-2.03-14.84-5.44-21.94l-.23-.47c.55-.46.99-.8.99-.8.1.16.16.3.25.48 3.52 7.33 6.97 17.71 5.1 22.97a8.11 8.11 0 0 1-3.74 4.54c-.1.06-.77.39-1 .47a18.44 18.44 0 0 1-1.35.42 10.66 10.66 0 0 1-2.33.25c-.35 0-.7-.01-1.05-.05" style="fill:url(#ag);stroke:none"/></g></g><g clip-path="url(#ah)" transform="matrix(.72827 0 0 -.72827 -18.16 575.9)"><path d="M0 0a14 14 0 0 1-.44.71l-.3.5c-3.79 6.83-7.87 12.76-10.1 18.35-.48 1.51-.87 3-1.1 4.42-.84 4.08-.5 6.47 1.06 9.77 1.5 3.17 6.03 7.13 8.56 5.92 5.46-2.61 6.19-1.35 7.5-.28l.2.15.22.15C19.92 28.69 4.57 7.4 0 0m-8.74-25.8a4.18 4.18 0 0 0-1.08-.03c-.57.08-1.14.3-1.69.68a4.31 4.31 0 0 0-1.63 2.2C-14.03-20.3-13.84-15-9.08-3c.49-1.08.96-2.1 1.16-2.5A31.92 31.92 0 0 0-4.5-19.25c-.3-3.84-2.15-6.16-4.24-6.55m20.28 61.94-1.01 1.92-.08.13c-2.75 5.06-2.85 4.1-4.57 4.4l-.19.05c-1.96.45-5.32 1.72-6.97 2.33-1.7.62-6.17-.72-9.05-1-.74-.07-1.3-.2-1.76-.38-1.33-.52-1.66-1.4-2.2-2.11-.32-.42-.55-.55-.85-.62h-.01c-2.25-.8-7.55-7.35-6.4-16.38.07-.88.26-1.75.5-2.6 2.2-8.66 9.53-20.28 11.34-23.58-1.33-3.05-4.17-9.33-5.07-15.24a18.6 18.6 0 0 1-.27-2.7c-.12-3 .44-5.75 2.19-7.72l.35-.39a7.44 7.44 0 0 1 3-1.77c1.5-.64 2.63-.28 3.73-.1.5-.3 1.01-.52 1.53-.7a11.16 11.16 0 0 1 8.32.7c2.22.73 3.22 2.02 3.86 4.04.63 1.9 1.6 5.77-.6 11.5C6.34-11.6 4.35-7.74 1.28-2.1l-.02.03C3.72 2.6 10.3 14.13 11.49 17.5l.17.52c2 5.1 3.3 11.85-.12 18.13" style="fill:#efece8;fill-opacity:1;fill-rule:nonzero;stroke:none" transform="translate(73.72 745.27)"/><path d="M0 0c-.2-.33-.73-1.12-1.4-2.1-1.63-2.77-3.19-5.12-4.21-6.78a72.34 72.34 0 0 0 1.27-2.1l-.02.03.53.98C-3.83-8.1-.63-1.46 0 0" style="fill:#dad7d3;fill-opacity:1;fill-rule:nonzero;stroke:none" transform="translate(79.34 754.15)"/><path d="M0 0c-1.2.65-2.75.6-4.22.34L-5.75.05s2.17-.53 3.9-1.14c1.12-.43 3-1.15 5.25.04l.04.1C2.4-.85 1.14-.62 0 0" style="fill:#bbb8b5;fill-opacity:1;fill-rule:nonzero;stroke:none" transform="translate(72.43 789)"/></g><path d="M65.37 788.5c-.5-.2-.93-.38-1.24-.55-4.07-2.26-5.22-4.49-5.42-4.67-.11-.79-.3-1.39-.38-2.35.75-.38 4.4.33 6.83 2.24.3.25.62.5.95.72l.34.23.05.05c1.38 1.24 3.02 4.28 4.54 3.53l.37-.17-.55.3a7.42 7.42 0 0 1-3.5 1.02c-.64 0-1.3-.1-2-.36" style="fill:url(#ai);stroke:none" transform="matrix(.72827 0 0 -.72827 -18.16 575.9)"/><g clip-path="url(#aj)" transform="matrix(.72827 0 0 -.72827 -18.16 575.9)"><path d="M0 0a7.13 7.13 0 0 1-.43-1.44c-.07-.39-.14-.8-.2-1.25a17.95 17.95 0 0 0 5.41 4.67c.3.15 1.13.71 1.5.83C3.47 2.06 1.92.93.27.42A1.79 1.79 0 0 1 0 0" style="fill:#f6f2ee;fill-opacity:1;fill-rule:nonzero;stroke:none" transform="translate(59.35 785.97)"/><path d="M0 0c-4.25 2.38-6.45-.65-6.45-.65l-.04-.05c-1.5-1.35-3.02-3.24-3.65-5.15C-8.64-2.68-4.1 1.28-1.58.07 4.42-2.8 4.72-1 6.34.1 5.15-.63 4.17-2.34 0 0" style="fill:#ebe7e3;fill-opacity:1;fill-rule:nonzero;stroke:none" transform="translate(72.98 784.87)"/><path d="M0 0c-2.8-1.17-4.68 1.12-7.5 2.79l-.36.16c-1.96.98-5.25-4.2-5.25-4.2.63.47 2.94 3.76 7.2 1.37 4.16-2.33 4.78-1 5.91-.2.06.03.42.3.42.3L0 0" style="fill:#fffbf7;fill-opacity:1;fill-rule:nonzero;stroke:none" transform="translate(78.9 784.74)"/><path d="M0 0c-2.43-1.85-6.08-2.62-6.83-2.23-.33-3.65-1.13-8.37-.32-13.7.36-2.33.83-4.8 1.22-7.26C-6.93-15.36-7.13-5.96 0 0" style="fill:#efece8;fill-opacity:1;fill-rule:nonzero;stroke:none" transform="translate(65.16 783.17)"/><path d="M0 0c-1.33-.52-1.66-1.39-2.2-2.1-.33-.43-.55-.56-.85-.62l.72.16c.74.19 1.37.46 2.1.79.68.3 1.44.63 2.42 1.03.55.23 1.7.64 2.3.8.62.18 2.22.45 2.3.46l.82.11C7.55.63.85.25 0 0" style="fill:#efece8;fill-opacity:1;fill-rule:nonzero;stroke:none" transform="translate(61.64 788.86)"/></g><g clip-path="url(#ak)" transform="matrix(.72827 0 0 -.72827 -18.16 575.9)"><g mask="url(#al)"><path d="M69.08 789.49c-.14-.01-6.6-.38-7.44-.63-1.33-.52-1.66-1.39-2.2-2.1-.33-.43-.55-.55-.85-.62l.71.16c.75.19 1.37.47 2.11.8.67.29 1.44.62 2.42 1.02.54.23 1.7.65 2.3.81.62.17 2.15.43 2.3.45l.82.11h-.17" style="fill:url(#am);stroke:none"/></g></g><g clip-path="url(#an)" transform="matrix(.72827 0 0 -.72827 -18.16 575.9)"><path d="m0 0-.19-.38a10 10 0 0 0-.75-1.26c2.22.72 3.22 2 3.85 4.03C.55-.09 0 0 0 0" style="fill:#d2cfcb;fill-opacity:1;fill-rule:nonzero;stroke:none" transform="translate(78.74 717.3)"/><path d="M0 0c-1.77.78-3.2-.75-4.09-1.67a11.17 11.17 0 0 1 8.32.7c.27.39.52.81.76 1.27C4.06-1.25 1.7-.75 0 0" style="fill:#dedbd7;fill-opacity:1;fill-rule:nonzero;stroke:none" transform="translate(73.57 716.62)"/><path d="M0 0c.9 1.77 1.37 4.97 1.1 6.76C.8 2.94-1.05.6-3.13.21A4.14 4.14 0 0 0-4.21.17a3.9 3.9 0 0 0-1.96.88A4.77 4.77 0 0 0-9.4 4.52l-.02.05c.02-.27.04-.54.08-.8V3.7c.1-.8.27-1.56.51-2.28C-7.09-1.74-2.04-4.03 0 0" style="fill:#ebe7e3;fill-opacity:1;fill-rule:nonzero;stroke:none" transform="translate(68.12 719.26)"/><path d="M0 0a4.14 4.14 0 0 0-1.08-.03 3.93 3.93 0 0 0-2.76 1.75C-5.28 3.2-6.07 5.85-6.2 7.66v.06c-.06-.48-.1-1.04-.11-1.55a15.92 15.92 0 0 1 .17-3.21c1.6-3.02 6-6.04 8.95-.95A4.46 4.46 0 0 0 0 0" style="fill:#f2efea;fill-opacity:1;fill-rule:nonzero;stroke:none" transform="translate(64.99 719.47)"/><path d="M0 0c-2.75 5.06-2.85 4.1-4.57 4.4-2.33-.12-4.93-1.75-8.2-.34C-8.17 1.31-4.3 7.25.06-.12l.06-.1-.05.08L0 0" style="fill:#e7e4e0;fill-opacity:1;fill-rule:nonzero;stroke:none" transform="translate(84.18 783.47)"/></g><g clip-path="url(#ao)" transform="matrix(.72827 0 0 -.72827 -18.16 575.9)"><g mask="url(#ap)"><path d="m79.32 784.96.08.05c1.04.68 3.05 1.03 4.85-1.68-2.64 4.47-5.1 4.06-7.65 3.65-1.67-.27-3.38-.54-5.2.55 2.56-1.65 5.47-4.1 7.92-2.58" style="fill:url(#aq);stroke:none"/></g></g><g clip-path="url(#ar)" transform="matrix(.72827 0 0 -.72827 -18.16 575.9)"><path d="M0 0a9.87 9.87 0 0 1 2.93 2.9C.74.9-4 1.56-5.38 6.78a8.93 8.93 0 0 1 2.38-5A7.41 7.41 0 0 1 0 0" style="fill:#ccc9c6;fill-opacity:1;fill-rule:nonzero;stroke:none" transform="translate(64.22 715.76)"/><path d="M0 0c-1.7.62-6.17-.72-9.05-1-.74-.07-1.3-.2-1.76-.38 1.7.37 1.82 0 6.83.56.02 0 .65.07.81.07a5.8 5.8 0 0 0 3.15-.49 8.71 8.71 0 0 1 3.27-.99c1.3-.13 2.53-.04 3.72-.1C5-1.88 1.64-.6 0 0" style="fill:#f2efea;fill-opacity:1;fill-rule:nonzero;stroke:none" transform="translate(72.45 790.24)"/></g><g clip-path="url(#as)" transform="matrix(.72827 0 0 -.72827 -18.16 575.9)"><g mask="url(#at)"><path d="M71.14 790.4c-2.1-.03-5.43-.93-7.75-1.16-.73-.07-1.3-.2-1.75-.38 1.72.35 1.9 0 6.83.56l.8.08c1.14.07 2.24 0 3.16-.5a8.66 8.66 0 0 1 3.27-.98c.78-.09 1.54-.09 2.28-.08.48 0 .96 0 1.44-.03-1.96.45-5.33 1.73-6.97 2.33-.3.1-.66.16-1.1.16z" style="fill:url(#au);stroke:none"/></g></g><g clip-path="url(#av)" transform="matrix(.72827 0 0 -.72827 -18.16 575.9)"><path d="m0 0-.14-.07a5.4 5.4 0 0 0-4.7-.11l.55-.3c3.27-1.42 5.87.2 8.2.33l-.2.05C2.53-.04 1.3-.14 0 0" style="fill:#ebe7e3;fill-opacity:1;fill-rule:nonzero;stroke:none" transform="translate(75.7 788.02)"/><path d="M0 0c-2.12 9.34-6.72 15.42-10.78 20.4a30.19 30.19 0 0 0-6.18 12.91c.09-.94.16-1.93.23-2.94.78-5.73 2.92-12.54 9.2-20.24C-1.82 3.13-.6 2.18 0 0" style="fill:#fffbf7;fill-opacity:1;fill-rule:nonzero;stroke:none" transform="translate(79.34 730.95)"/><path d="m0 0 .07-.15c.01-.04.4-.94.4-.97a5.54 5.54 0 0 0-.24-4.9c1.53-5.41-.07-11.61-2.56-17.24-1.08-2.47-1.04-4.68-1.36-6.24l.01.02c2.07 3.82 3.96 7.45 4.54 9.1l.17.53c2 5.1 3.3 11.85-.12 18.13L0 0" style="fill:#ebe7e3;fill-opacity:1;fill-rule:nonzero;stroke:none" transform="translate(84.36 783.13)"/><path d="M0 0a15.4 15.4 0 0 0 3.45-3.89C3.15-1.73 2.6.41.8.22A2.3 2.3 0 0 1 .15.07C.14.07.12.09 0 0" style="fill:#dedbd7;fill-opacity:1;fill-rule:nonzero;stroke:none" transform="translate(79.32 784.95)"/><path d="M0 0a20.9 20.9 0 0 1-1.67 2.18 3.4 3.4 0 0 1-2.47 1.13c-.77-.02-1.07-.23-1.31-.35-.04-.02-.09-.05-.1-.07 2.57.74 3.07-1.75 3.45-3.88A14.03 14.03 0 0 0-.3-4.95C-.14-4.67.96-2.45 0 0" style="fill:#ccc9c6;fill-opacity:1;fill-rule:nonzero;stroke:none" transform="translate(84.88 782.06)"/><path d="M0 0c1.12.92 2.04 1.92 3.23 1.88C2.38 1.9-.8 1.23-1.53.7-1.03.4-.53.18 0 0" style="fill:#d2cfcb;fill-opacity:1;fill-rule:nonzero;stroke:none" transform="translate(69.48 714.95)"/><path d="M0 0c-.03.87-.13 1.74-.3 2.57a11.5 11.5 0 0 1-1.8 4.47c-3.3 4.67-11.23 13.27-13.28 19.97.6-4.2-.42-9.25 1.26-11.73l1.65-2.18c4.04-4.8 8.73-7.6 8.58-14.43-.08-3.62-1.3-4.91-3.07-6.58l.21-.08c1.72-.75 4.06-1.25 4.99.3A14.34 14.34 0 0 1 0 0" style="fill:#efece8;fill-opacity:1;fill-rule:nonzero;stroke:none" transform="translate(80.32 724.62)"/><path d="M0 0c1.07 8.78-4 13.49-8.84 19.02-.55.63-2.17 1.33-1.54-.12 2.73-4.3 4.55-8.45 4.98-10.18C-2.85-1.49-5.65-4.72-8.79-7.04c.73.52 3.9 1.2 4.75 1.17.21-.01.43-.05.66-.13C-1.94-4.64-.93-3.93-.36-1.76c.08.3.15.63.23 1 .04.24.1.49.13.76" style="fill:#e7e4e0;fill-opacity:1;fill-rule:nonzero;stroke:none" transform="translate(76.74 722.7)"/><path d="M0 0a52.8 52.8 0 0 1-8.93 18.53c-.08-.23-.52-1.62-.88-2.65l.8-1.42c.26-.5.43-.84.64-1.32.5-1.08.96-2.1 1.16-2.5A31.9 31.9 0 0 0-3.79-3.1c.2-3.83-1.71-8.22-5-10.28 1.49-.64 2.63-.28 3.73-.1C-2.38-12.47 2.54-10.2 0 0" style="fill:#f2efea;fill-opacity:1;fill-rule:nonzero;stroke:none" transform="translate(73.01 729.12)"/></g><g clip-path="url(#aw)" transform="matrix(.72827 0 0 -.72827 -18.16 575.9)"><g mask="url(#ax)"><path d="M56.26 783.3c-3.33-4.55-4.15-11.92-2.82-15.84 1.7-5 2.46-7.48 6.65-14.17.39-.62-2.17 9.62-2.73 12.1-.52 2.28-2.07 11.6 1.22 18.93.3.68.65 1.43 1.04 2.07a10.25 10.25 0 0 1-3.36-3.09" style="fill:url(#ay);stroke:none"/></g></g><g clip-path="url(#az)" transform="matrix(.72827 0 0 -.72827 -18.16 575.9)"><path d="M0 0a13.96 13.96 0 0 1-6.54-7.28c-1.2-3.1-1.3-6.51-.76-9.78.5-3.3 1.68-6.49 2.36-9.85.34-1.67.54-3.39.48-5.1a18.24 18.24 0 0 0-.89-5.02 21.43 21.43 0 0 1-.29 9.97c-.4 1.63-.9 3.24-1.39 4.86a40.76 40.76 0 0 0-1.18 5c-.25 1.7-.36 3.43-.22 5.16.09.86.2 1.72.42 2.56a13.89 13.89 0 0 0 3.73 6.72C-3.04-1.56-1.6-.56 0 0" style="fill:#ccc9c6;fill-opacity:1;fill-rule:nonzero;stroke:none" transform="translate(66.76 785.55)"/><path d="M0 0c.34.9.56 1.84.66 2.8.08.95.1 1.9.03 2.86C.6 7.58.3 9.48.01 11.4c-.28 1.9-.6 3.8-.85 5.71-.27 1.91-.36 3.83-.55 5.75L.35 11.44a50 50 0 0 0 .62-5.77 18.3 18.3 0 0 0-.13-2.9C.68 1.81.42.87 0 0" style="fill:#ccc9c6;fill-opacity:1;fill-rule:nonzero;stroke:none" transform="translate(63.3 745.13)"/><path d="M0 0a37.46 37.46 0 0 1-1.53-14.98c.25-2.5.84-4.97 1.46-7.43.31-1.23.65-2.45.93-3.7.26-1.23.51-2.5.47-3.77-.06 1.27-.35 2.5-.68 3.73-.32 1.22-.7 2.44-1.04 3.66a44.86 44.86 0 0 0-1.57 7.47 33.24 33.24 0 0 0 .79 11.4C-.85-2.4-.47-1.19 0 0" style="fill:#ccc9c6;fill-opacity:1;fill-rule:nonzero;stroke:none" transform="translate(58.51 784.17)"/><path d="M0 0c-.56-1.05-.94-2.2-1.24-3.34a29.9 29.9 0 0 1-.8-10.59c.24-2.35.8-4.67 1.75-6.83a74.71 74.71 0 0 1 1.56-3.2c.52-1.06 1.13-2.08 1.7-3.14A27.04 27.04 0 0 0 .9-24.16a31.8 31.8 0 0 0-1.64 3.2c-.94 2.23-1.5 4.6-1.72 7A28.5 28.5 0 0 0-1.4-3.3C-1.04-2.15-.62-1.02 0 0" style="fill:#dedbd7;fill-opacity:1;fill-rule:nonzero;stroke:none" transform="translate(56.13 783.12)"/><path d="M0 0a15.5 15.5 0 0 0 4.24 4.14A11.5 11.5 0 0 0 6.9 5.51a6.66 6.66 0 0 0 1.5.32 3.69 3.69 0 0 0 1.54-.23c1.9-.68 3.56-1.82 5.23-2.85.83-.5 1.69-1 2.61-1.3.46-.14.95-.24 1.43-.2.49.03.97.17 1.4.43-.41-.3-.89-.49-1.39-.55a4 4 0 0 0-1.5.12c-.97.26-1.86.74-2.72 1.22-1.73.97-3.36 2.1-5.2 2.72-.24.07-.46.15-.68.18a3.4 3.4 0 0 1-.7.03 5.64 5.64 0 0 1-1.4-.28c-.9-.3-1.77-.76-2.6-1.27A18.14 18.14 0 0 1 0 0" style="fill:#ccc9c6;fill-opacity:1;fill-rule:nonzero;stroke:none" transform="translate(58.71 783.28)"/><path d="M0 0c.4.32.9.54 1.43.57C1.96.61 2.5.5 2.97.25a4.61 4.61 0 0 0 2.07-2.08l.07-.14a6.7 6.7 0 0 0 .91-2.96 4.75 4.75 0 0 0-.75-2.91c.45.88.6 1.9.52 2.9a6.9 6.9 0 0 1-.93 2.8 5.65 5.65 0 0 1-2.04 2.1A2.86 2.86 0 0 1 0 0" style="fill:#bbb8b5;fill-opacity:1;fill-rule:nonzero;stroke:none" transform="translate(79.32 784.95)"/><path d="M0 0a25.13 25.13 0 0 1 3.92-9.17l.96-1.37.48-.7.45-.71a22.98 22.98 0 0 0 2.8-6.13 18.89 18.89 0 0 0 .7-6.03 18.78 18.78 0 0 1-.24 2.7 20.33 20.33 0 0 1-1.92 6.36c-.5 1-1.02 1.98-1.63 2.92l-.45.7-.48.69c-.31.45-.64.91-.95 1.38-.63.94-1.2 1.92-1.69 2.93A21.41 21.41 0 0 0 0 0" style="fill:#ccc9c6;fill-opacity:1;fill-rule:nonzero;stroke:none" transform="translate(64.42 747.86)"/><path d="M0 0a23.8 23.8 0 0 1 1.02-4.44c.45-1.45 1-2.87 1.64-4.24a26.83 26.83 0 0 1 5.04-7.5c.53-.53 1.1-1.07 1.59-1.66a15.37 15.37 0 0 0 3.26-6.04 17.53 17.53 0 0 0 .04-9.07c.3 1.5.44 3.01.39 4.53a17.08 17.08 0 0 1-.7 4.46 15.86 15.86 0 0 1-3.25 5.9c-.5.57-1.03 1.09-1.58 1.64A26.3 26.3 0 0 0 2.42-8.8a33.9 33.9 0 0 0-2.1 6.53C.16-1.52.03-.76 0 0" style="fill:#d2cfcb;fill-opacity:1;fill-rule:nonzero;stroke:none" transform="translate(63.8 753.9)"/><path d="M0 0a44.73 44.73 0 0 1 3.44 9.7c.37 1.67.64 3.37.75 5.08.04.86.04 1.72-.05 2.57l-.07.64-.13.63-.07.31c-.02.1-.07.2-.1.3l-.2.62c.8-1.55 1-3.35 1-5.08a26.47 26.47 0 0 0-.62-5.18c-.37-1.7-.88-3.37-1.52-4.99A23.21 23.21 0 0 0 0 0" style="fill:#fffbf7;fill-opacity:1;fill-rule:nonzero;stroke:none" transform="translate(81.94 757.84)"/></g><g clip-path="url(#aA)" transform="matrix(.72827 0 0 -.72827 -18.16 575.9)"><g mask="url(#aB)"><path d="m63.07 758.46-.1.45.1-.45m-.22-12.85.44-.76.2-.35c5.64-9.85 14.47-17.04 9.5-24.81a8.83 8.83 0 0 0-1.67-2.1c.9.73 1.6.65 2.23.56.66-.1 1.24-.2 1.88.68.19.25.43.65.64 1.16.1.28.2.57.31.95 0 0 2.7-3.65 5.35-1 .9 2.97 1.25 7.44-2.7 12.29-4.5 5.52-7.31 6.08-10.94 12.3-2.88 4.93-4.6 12.07-5.02 13.93.42-2.02 1.94-10.1-.22-12.84" style="fill:url(#aC);stroke:none"/></g></g><g clip-path="url(#aD)" transform="matrix(.72827 0 0 -.72827 -18.16 575.9)"><g mask="url(#aE)"><path d="M57.58 781.04a39.53 39.53 0 0 1-.5-14.12c.35-2.33 2.07-7.42 2.47-9.87-1 7.83-4.72 22.82 7.21 28.5-2.84-.7-8.43-4.9-9.18-4.51" style="fill:url(#aF);stroke:none"/></g></g><g clip-path="url(#aG)" transform="matrix(.72827 0 0 -.72827 -18.16 575.9)"><g mask="url(#aH)"><path d="M71.14 790.4c-2.1-.03-5.43-.93-7.75-1.16-.73-.07-1.3-.2-1.75-.38-1.33-.52-1.66-1.39-2.2-2.1-.33-.43-.55-.55-.85-.62h-.02c-2.24-.81-7.55-7.36-6.4-16.38.08-.89.27-1.75.5-2.6 2.2-8.66 9.54-20.28 11.34-23.58-1.33-3.06-4.16-9.33-5.06-15.24a18.6 18.6 0 0 1-.27-2.7c-.13-3 .44-5.75 2.18-7.73l.36-.38a7.43 7.43 0 0 1 3-1.77c1.5-.64 2.63-.29 3.73-.1.5-.3 1-.53 1.53-.7a11.17 11.17 0 0 1 8.32.7c2.21.72 3.22 2.02 3.85 4.03.64 1.9 1.61 5.77-.6 11.5-.99 2.47-2.98 6.35-6.05 11.97l-.02.04c2.46 4.66 9.06 16.19 10.23 19.56l.18.52c1.99 5.1 3.3 11.86-.12 18.14l-1.02 1.91-.07.14c-2.76 5.05-2.85 4.1-4.57 4.4-.06 0-.13.03-.2.04-1.95.45-5.32 1.73-6.96 2.33-.3.1-.66.16-1.1.16zm2.15-44.42-.3.5c-3.8 6.82-7.88 12.76-10.1 18.35-.49 1.5-.87 3-1.11 4.42-.84 4.07-.49 6.47 1.07 9.76 1.5 3.18 6.02 7.14 8.56 5.93 2.78-1.34 4.31-1.65 5.32-1.53.97.12 1.46.65 2.1 1.18.14.12.46.34.5.36a15.43 15.43 0 0 0 3.45-3.88c7.63-11.53-4.97-29.18-9.06-35.8-.27.46-.43.7-.43.7m-9.39-26.53a3.9 3.9 0 0 0-1.69.68 4.34 4.34 0 0 0-1.62 2.19c-.9 2.66-.7 7.96 4.05 19.95l1.16-2.5a31.93 31.93 0 0 0 3.42-13.73c-.3-3.84-2.15-6.17-4.23-6.56a4.28 4.28 0 0 0-1.08-.03" style="fill:url(#aI);stroke:none"/></g></g><g clip-path="url(#aJ)" transform="matrix(.72827 0 0 -.72827 -18.16 575.9)"><g mask="url(#aK)"><path d="M71.24 790.4c-2.1 0-5.5-.93-7.85-1.16-.73-.07-1.3-.2-1.75-.38-1.33-.52-1.66-1.39-2.2-2.1-.33-.43-.55-.56-.85-.62h-.02c-2.24-.81-7.55-7.36-6.4-16.38.08-.89.27-1.75.5-2.6 2.2-8.66 9.54-20.28 11.34-23.58-1.33-3.06-4.16-9.33-5.06-15.24a18.6 18.6 0 0 1-.27-2.7c-.13-3 .44-5.75 2.18-7.73l.36-.38a7.43 7.43 0 0 1 3-1.77c1.5-.64 2.63-.29 3.73-.1.5-.3 1-.53 1.53-.7a9.8 9.8 0 0 1 3.25-.51c2.07.01 3.98.6 5.07 1.21 2.21.72 3.22 2.02 3.85 4.03.64 1.9 1.61 5.77-.6 11.5-.99 2.47-2.98 6.35-6.05 11.97l-.02.04c2.46 4.66 9.06 16.19 10.23 19.56l.18.52c1.99 5.1 3.3 11.86-.12 18.14l-1.02 1.91-.07.14c-2.76 5.05-2.85 4.1-4.57 4.4-.06 0-.13.03-.2.04-1.95.45-5.32 1.73-6.96 2.33a3.4 3.4 0 0 1-1.19.17zm2.05-44.42-.3.5c-3.8 6.82-7.88 12.76-10.1 18.35-.49 1.5-.87 3-1.11 4.42-.84 4.07-.49 6.47 1.07 9.76 1.5 3.18 6.02 7.14 8.56 5.93 2.78-1.34 4.31-1.65 5.32-1.53.97.12 1.46.65 2.1 1.18.14.12.46.34.5.36a15.43 15.43 0 0 0 3.45-3.88c7.63-11.53-4.97-29.18-9.06-35.8-.27.46-.43.7-.43.7m-9.39-26.53a3.9 3.9 0 0 0-1.69.68 4.34 4.34 0 0 0-1.62 2.19c-.9 2.66-.7 7.96 4.05 19.95l1.16-2.5a31.93 31.93 0 0 0 3.42-13.73c-.3-3.84-2.15-6.17-4.23-6.56a4.28 4.28 0 0 0-1.08-.03" style="fill:url(#aL);stroke:none"/></g></g><g clip-path="url(#aM)" transform="matrix(.72827 0 0 -.72827 -18.16 575.9)"><path style="fill:#e1deda;fill-opacity:1;fill-rule:nonzero;stroke:none" d="M0 0c.07 3.51-.6 6.97-1.7 10.26a47.99 47.99 0 0 1-4.44 9.42c-.89 1.5-1.82 3-2.69 4.51-.87 1.52-1.72 3.05-2.54 4.61a70.61 70.61 0 0 0-4.3 9.6 71.5 71.5 0 0 1 2.3-4.72c.8-1.55 1.64-3.09 2.5-4.61 1.71-3.05 3.51-6.04 5.34-9.03a43.24 43.24 0 0 0 4.35-9.61c.51-1.7.9-3.42 1.1-5.17C.12 3.51.17 1.74 0 0" transform="translate(70.6 724.93)"/><g style="opacity:.42999303" clip-path="url(#aN)"><path style="fill:url(#aO);stroke:none" d="M57.23 758.6a174.37 174.37 0 0 1 3.57-6.49 63.26 63.26 0 0 1 3.46-4.98c5.82-7.55 9.48-15.25 6.85-22.67-.48-1.36-.24-1.99.36-2.02h.08c1.68.07 5.76 4.29 5.83 10.64v.3c-.04 4.36-2 9.7-7.87 15.36a76.08 76.08 0 0 0-14.57 14.58c.71-1.6 1.47-3.17 2.3-4.72"/></g><path style="fill:#f2efea;fill-opacity:1;fill-rule:nonzero;stroke:none" d="M0 0c-.21.48-.37.82-.63 1.31-1.33-3.05-4.16-9.33-5.06-15.24a18.6 18.6 0 0 1-.27-2.7l.08-.56c.8-3.45 2.04-4.03 2.56-4.12-.32.4-.57.86-.73 1.35-.9 2.67-.7 7.97 4.05 19.96" transform="translate(64.64 742.26)"/><path style="fill:#fffbf7;fill-opacity:1;fill-rule:nonzero;stroke:none" d="M0 0c-1 2.47-2.98 6.35-6.06 11.97l-.02.04-2 3.28c-3.78 6.82-7.87 12.76-10.09 18.35a31 31 0 0 0-1.1 4.42l-.01.01v.03c.2-1.39.15-2.82.6-5.02a30.24 30.24 0 0 1 6.18-12.91C-8.44 15.19-3.84 9.1-1.72-.23c.27-1.2.68-3.89.84-6.37.2-3-.37-5.09-1.44-7.3.03-.03.67-.88 2.54 1.72.15.22.27.45.37.68C1.23-9.6 2.21-5.73 0 0" transform="translate(81.06 731.2)"/></g><path d="M54.77 776.4a2.8 2.8 0 0 1 5.6 0 2.8 2.8 0 1 1-5.6 0m3.17 1.33a.72.72 0 0 0-.46.66l.09.01c.46 0 .87-.16 1.21-.42a.72.72 0 0 0-.84-.25m-2.23-.6c.17.43.5.8.9 1.02a.7.7 0 0 0 .1-.36c0-.4-.32-.73-.72-.73a.7.7 0 0 0-.28.06m1.43-1.43-.36.68a.2.2 0 0 0 .03.23l.54.56a.2.2 0 0 0 .23.04l.69-.34a.2.2 0 0 0 .1-.2l-.1-.77a.2.2 0 0 0-.16-.17l-.76-.13h-.03a.2.2 0 0 0-.18.1m1.78.57c0 .34.24.63.56.7a1.95 1.95 0 0 0-.09-1.38.72.72 0 0 0-.47.68m-3.29-.33.18.03c.4 0 .73-.33.73-.73a.7.7 0 0 0-.15-.43 2 2 0 0 0-.76 1.13m1.76-1.5a.7.7 0 0 0 .71.62c.24 0 .46-.12.59-.3-.32-.22-.7-.35-1.12-.35l-.18.02" style="fill:url(#aP);stroke:none" transform="matrix(.72827 0 0 -.72827 -18.16 575.9)"/><path d="m57.9 781.48.65-1.12 1.12.64-.65 1.12z" style="fill:url(#aQ);stroke:none" transform="matrix(.72827 0 0 -.72827 -18.16 575.9)"/><path d="m56.31 771.44.93-.9.9.93-.93.9z" style="fill:url(#aR);stroke:none" transform="matrix(.72827 0 0 -.72827 -18.16 575.9)"/><path d="M75.1 724.41c-.1-.13-.16-.35-.18-.63a4.5 4.5 0 0 1 0-.78c-.1.12-.31.15-.42.07.03-.11.07-.22.08-.34l.01-.27c-.2-.14-.42-.33-.45-.7v-.16c-.07.23-.2.46-.26.66a1.1 1.1 0 0 1-.26.44c-.03.03-.07.04-.1.06l-.07-.17c0-.03 0-.06-.02-.11-.07.07-.12.13-.19.18a.43.43 0 0 1-.17.06c-.13.03-.15 0-.15-.19v-.2c-.28.1-.44-.12-.43-.13.06-.05.1-.09.12-.17a.74.74 0 0 0-.06-.32c-.08-.21-.02-.58.13-.72.11-.1.32-.09.46.05.17.16.22.64.13.8-.06.08-.1.08-.2 0 .02-.06.08-.12.07-.19a.42.42 0 0 0-.12-.25c-.08-.09-.17-.1-.23-.02-.11.12-.11.33-.01.53.03.06.1.16.14.19.16.11.34.15.46.06.13-.09.2-.23.22-.45.03-.38-.17-.97-.15-1.35.01-.35.26-.49.55-.55.13-.02.46-.06.53-.09.35-.12.65-.1.83.22.2.33.3.94.5 1.27.11.18.25.28.4.3.15.02.3-.09.38-.26a.77.77 0 0 0 .04-.23c0-.23-.1-.42-.26-.47-.09-.04-.16 0-.2.12-.01.08-.01.2.02.28.03.07.1.1.16.14-.06.12-.1.13-.2.08-.15-.1-.3-.54-.23-.75.06-.19.24-.3.38-.26.21.06.4.35.44.58.01.11.05.24.1.3.04.08.1.08.19.1l.02.04c-.05.24-.21.2-.35.27l.1.19c.08.16.07.2-.05.23a.42.42 0 0 1-.19.02c-.08-.01-.15-.05-.25-.08l.03.11.03.19h-.04l-.08-.01c-.13-.04-.21-.12-.38-.21a2.07 2.07 0 0 1-.5-.55c.01.08.04.16.07.23.1.26.08.42-.02.55l-.12.19.04.1c.05.17.14.3.2.48-.03.11-.23.22-.36.17.08.24.13.5.13.8 0 .28-.07.45-.14.58-.01.02-.03.02-.04.02-.03 0-.06-.02-.09-.05m-5.08-3.26-.14.48c-.2-.04-.33-.2-.42-.37-.1-.17-.14-.35-.2-.53l-.26.23c-.27-.32-.31-.65-.07-1.04.2-.32.44-.6.66-.9.26-.32.52-.64.53-1.07.02-.4-.2-.75-.53-1.04a1.39 1.39 0 0 0-.95-.31c-.02 0-.05-.11-.05-.14.03-.15.31-.08.45-.05 1.07.27 1.76 1.08 1.44 1.9-.12.33-.54.85-.7 1.16-.13.26-.25.53-.2.83.08.36.43.71.88.64a.52.52 0 0 0 .45-.5.57.57 0 0 0-.3-.46c-.1-.04-.22-.06-.3.02-.07.07-.07.17-.02.27l.01.05c-.16-.01-.37-.24-.35-.41.05-.3.73-.55 1.05-.35.29.2.45.63.34.99-.1.34-.25.52-.58.62a.89.89 0 0 0-.09.04l.17.47h-.06c-.36 0-.56-.23-.76-.53m2.44-1.26c-.2-.1-.45-.34-.5-.51l.28.07c.2.03.32-.07.36-.25.03-.15-.08-.41-.24-.54-.24-.21-.5-.4-.76-.6-.3-.21-.44-.48-.41-.77.02-.4.36-.69.42-.74a10.92 10.92 0 0 0-1.76-1.71l.51-.14c.57.48 1.12 1 1.65 1.58.45-.2 1-.25 1.44.09.28.21.4.47.52.75l.22.63c.1.29.3.52.53.6.2.08.32-.01.34-.28a3 3 0 0 1 0-.12c.14.17.2.35.23.52.07.31 0 .5-.14.63-.16.15-.42.16-.69-.05-.1-.07-.24-.22-.33-.37-.13-.2-.24-.4-.33-.6a6.08 6.08 0 0 0-.76-.85c.2.29.35.6.48.91.11.27.2.54.3.82l.03.13-.1-.09c-.37-.45-.8-.86-1.22-1.26l-.1-.13c0 .22.17.5.33.74l.18.2c.17.2.32.44.41.68.12.31.02.51-.16.63a.61.61 0 0 1-.36.11.95.95 0 0 1-.36-.08m-4.28-.77c-.18.01-.54.02-.55.01 1.02-.52 1.33-1.23 1.5-2.1.21.1.43.76.39 1.11-.05.48-.32.83-.75 1.16l-.04-.15c-.23.1-.38.34-.69.38l.14-.41m9.21-1.25-.07.03c-.2.11-.93.28-1.31-.13-.26-.29-.58-1.02-.1-1.33.12-.07.2-.14.39-.05.16.08.26.22.33.38l.03.11-.06-.04c-.16-.17-.25-.22-.32-.17-.08.05-.14.33-.05.48.22.4.65.54.86.41.17-.1.21-.32.08-.66-.16-.39-.43-.7-.75-.83a2.98 2.98 0 0 0-.86-.2c-.18-.02-.35.02-.54.06-.23.05-.47.1-.74.03-.7-.2-1.53-.85-2-1.5l.28-.01c.14.16.3.32.5.46.54.42 1.07.64 1.58.61.4-.02.76-.1 1.13-.11.23-.01.45-.03.69.02.33.06.66.31.94.77l-.27.06c.4.35.7.76.8 1.3l-.46-.3c.1.22.2.43.26.63.07.21.06.39-.01.5a5 5 0 0 0-.33-.52m-7.75-1.52c-.23-.18-.22-.48-.04-.72l.18-.2c.2.15.36.31.55.46.41.31.53.68.47 1.07l-.06.3c-.38-.33-.75-.62-1.1-.9m-1.84-.13-.58.04c0-.01.22-.22.34-.31l-.26-.22c.91.04 1.6-.39 2.27-.8-.09.54-.86 1.28-1.8 1.41l.03-.12m3.64-1.17c-.14-.16-.34-.32-.52-.47.33-.06.65-.1.97-.11a2.93 2.93 0 0 1 .57.52c.11.12.2.25.3.38l.3.36a2.1 2.1 0 0 1-1.62-.68m3.41.03a4.83 4.83 0 0 1-1.78-.63c.94.03 1.84.18 2.64.4-.18.15-.4.23-.7.23h-.16" style="fill:url(#aS);stroke:none" transform="matrix(.72827 0 0 -.72827 -18.16 575.9)"/><g clip-path="url(#aT)" transform="matrix(.72827 0 0 -.72827 -18.16 575.9)"><g clip-path="url(#aU)"><path d="M69.3 744.07c-.03 0-.06-.02-.06-.05V744c.01-.17.06-.36.22-.6.18-.28.37-.48.58-.65-.14-.04-.26-.25-.22-.37.16-.11.32-.2.47-.32.32-.26.48-.12.5 0 .01.04-.04.12-.11.2.07-.06.14-.1.22-.1.14.04.23.1.13.32-.06.1-.16.24-.21.35-.06.12-.09.24-.13.35-.15.02-.31-.14-.34-.3-.12.23-.26.46-.45.7-.19.24-.37.4-.54.47h-.03zm2.67-1.04c.03-.26.31-.7.6-1.05-.13.28-.08.44.03.58.04.06.03.25-.12.44a.82.82 0 0 1-.28.24.28.28 0 0 1-.08 0c-.13 0-.17-.1-.15-.2m1.88-.26c-.06-.05-.18-.14-.24-.5l-.28.27c-.03-.05-.06-.08-.08-.14-.05-.16-.02-.36.1-.57.19-.37.4-.74.62-1.1.4-.67.79-1.32.57-1.9h.07l.03.03c.3.2.52.56.3.99-.22.43-.82.98-1.03 1.43-.12.26-.13.48-.04.66.08.17.3.25.56.22.06 0 .2-.08.27-.12.24-.17.38-.4.33-.61-.02-.12-.13-.17-.27-.13a.7.7 0 0 0-.3.22c-.05.07-.02.17-.03.26-.18.02-.22 0-.23-.14 0-.23.27-.57.56-.64.25-.06.5.05.56.23.08.27 0 .53-.24.73a.94.94 0 0 0-.27.32c-.03.1 0 .17.03.28l-.01.04c-.3.13-.38-.08-.55-.18l-.14.24c-.07.12-.11.18-.16.18-.04 0-.07-.02-.13-.07m-2.34-.37a.2.2 0 0 1-.03-.24c.1-.2.3-.38.53-.5.43-.2.82-.51 1.11-.91l.15-.22c-.25.25-.54.47-.8.7-.29.25-.56.36-.79.35-.07 0-.12-.07-.11-.14 0-.23.17-.48.41-.77.2-.25.4-.53.63-.8l-.14.12c-.34.27-.64.6-.88.99-.12.19-.64.83-.87.51-.08-.11.05-.35.29-.53.21-.17.44-.3.65-.46 0-.27.1-.44.42-.67.19-.13.37-.22.55-.35a.56.56 0 0 0 .15-.16.8.8 0 0 1 .45-.48c.2-.09.4-.1.53-.09.13 0 .26.07.34.19.13.17.2.61.02.96a1.4 1.4 0 0 1-.3.35.65.65 0 0 0-.18.23c-.1.23-.24.45-.39.66-.21.3-.4.4-.61.38-.18.22-.35.43-.54.63-.17.17-.38.27-.5.27-.04 0-.07 0-.09-.02m-1.47-1.91c0-.3.46-.35.57-.3.13.05.22.15.36.2.1.03.23 0 .4-.01-.3.18-.74.4-1.03.4-.18 0-.3-.08-.3-.3m.65-.54c-.05-.01-.1-.05-.14-.07.07-.08.17-.23.25-.3-.12-.02-.23-.03-.33-.07-.08-.03-.13-.08-.2-.14-.11-.11-.1-.16.1-.3.08-.04.14-.09.23-.15a.45.45 0 0 1-.17-.55c.1.03.18.06.28.01a1 1 0 0 0 .3-.29c.18-.24.44-.35.71-.28.2.05.32.29.27.54-.06.3-.37.6-.6.6-.14 0-.17-.04-.16-.21.09-.02.2 0 .26-.06a.7.7 0 0 0 .2-.3c.04-.15-.02-.25-.14-.27-.21-.04-.45.12-.6.37a.99.99 0 0 0-.1.28c-.01.26.09.48.26.54.19.08.4.06.65-.08.44-.24.95-.87 1.37-1.13.4-.24.78-.04 1 .24l.04.04v.07c-.6-.18-1.21.24-1.86.68-.34.24-.7.48-1.05.7a.8.8 0 0 1-.44.14l-.13-.01m5.03-.31c-.32-.17-.46-.62-.16-1.2.07-.13.16-.28.26-.4.4-.5.83-.9 1.27-1.32.26-.25.5-.52.76-.8.65-.72.53-1.57.54-1.61.3.46.54.95.3 1.7a2.4 2.4 0 0 1-.79 1.06c-.25.22-.5.4-.76.6-.35.28-.58.68-.6 1.02 0 .31.19.43.56.33l.16-.05c-.14.26-.38.43-.6.56a1.1 1.1 0 0 1-.59.19.76.76 0 0 1-.35-.08m-.53-1.97c.45-.73.82-1.5 1.18-2.27.18-.38.44-.73.67-1.06.1-.12.28-.16.42-.18.1-.02.16-.05.22-.17.8-1.47 1.43-3 1.94-4.48a.33.33 0 0 0 0-.17c-.22-.44-.08-.76.15-1.05.18-.23.51-.7.65-.68.02.28.05.55.05.82 0 .25-.01.5-.08.73-.05.14-.2.22-.3.33-.08.08-.18.14-.22.24a30.34 30.34 0 0 1-1.97 4.38c-.08.15-.1.25-.05.4.08.24 0 .52-.15.79a6.6 6.6 0 0 1-1.42 1.65c-.32.28-.66.54-1 .8l-.17.1.08-.18m-1.45-.35c-.28-.21-.41-.52-.38-.98.03-.33.25-.8.47-.94.01.15 0 .3.03.43.06.27.25.4.5.37.23-.04.54-.32.65-.59.18-.44.31-.88.46-1.33.16-.51.46-.83.88-.94.35-.08.68-.02 1.02.14l-.37.22c-.37.21-.6.58-.8 1.02-.23.55-.44 1.11-.76 1.62-.2.34-.46.66-.75.9a.84.84 0 0 1-.53.22.7.7 0 0 1-.42-.14m-2.82-3.53-.7.12c-.07-.29.05-.54.22-.76.16-.21.37-.38.56-.57l-.44-.19c.24-.52.64-.78 1.28-.7.53.05 1.03.18 1.54.3.57.12 1.13.26 1.7.03.52-.22.84-.7 1-1.3.13-.49.06-.92-.16-1.4-.01-.01.1-.12.14-.14.06.2.26.5.3.7a2.13 2.13 0 0 1-1.96 2.64c-.49.04-.98-.01-1.48-.03-.41-.01-.82 0-1.17.25-.42.3-.66.96-.3 1.48.2.3.6.43.91.28.22-.1.41-.41.4-.66 0-.16-.05-.3-.2-.36-.13-.06-.25 0-.35.12l-.06.05c-.08-.21.08-.6.32-.68.42-.13.83.4.76.92-.07.48-.3.88-.71 1.07-.47.2-.86.13-1.19-.21l-.1-.1-.5.5c-.26-.48-.1-.9.2-1.36m2.34-.79c.47.02.96.62.74 1.16-.16.4-.64.73-1.02.96.58-.66.82-1.39.28-2.12m6.02-.83c.16-.28.27-.6.4-.9.45.27.77.81.58 1.4-.1.3-.26.58-.4.86l-.4.58-.36.6c-.28-.9-.29-1.75.18-2.54m-1.74-1.14c.14-.4.56-.53.98-.4l.38.16c-.13.34-.28.64-.39.96-.24.72-.7 1.07-1.26 1.17l-.45.05c.29-.67.5-1.32.74-1.94m-4.98.06.2-.11c-.26-.28-.65-.37-.87-.76l.64-.01a5.7 5.7 0 0 1-.27-.75c1.2 1.15 2.33 1.23 3.6 1.04-.04.35-.84.96-1.34 1.07-.15.04-.3.06-.46.06-.5 0-.99-.2-1.5-.54m7.6-.37c.31.13.63.24.95.3l-.06.17-.17.42a2.62 2.62 0 0 1-.73-.89m.07-.8c-.02 0-.03-.03-.07-.07.49-.1.66-.51.75-1 .28.06.41.3.53.52.1-.1.2-.21.32-.3-.1.36-.2.72-.33 1.1h-.2c-.33 0-.67-.1-1-.24m-4.2-1.7h.19c-.1-.27-.21-.52-.34-.77.02-.01.41.18.6.3l.18-.45c.38 1.26 1.29 1.99 2.2 2.72a1.2 1.2 0 0 1-.22.01c-.81 0-2.02-.69-2.6-1.8m2.94.85a2.5 2.5 0 0 1-.76-.97c-.16-.4-.1-.71.14-.98.32.29.55.58.46.94l.7.05c-.2.43-.32.82-.05 1.28-.02 0-.03.02-.05.03l-.44-.35m1.86-.56c.16-.27.28-.51.44-.72.11-.14.3-.24.53-.14a.6.6 0 0 1 .24.2l-.07.32c-.16-.02-.29.07-.39.15a1 1 0 0 1-.61.2h-.14m-1.66-1.31c-.07-.22-.16-.4-.44-.45.11-.17.28-.2.49-.18a.6.6 0 0 1 .4.3c.12.23.14.5.1.73 0 .13-.03.28-.07.36-.26-.24-.4-.5-.48-.76m1.97-.37c.22-.12.55.02.73.39-.3-.08-.4.1-.56.26-.13.13-.3.22-.48.34-.09-.37.07-.85.3-.99m-1.24.06c0-.2.01-.38-.2-.57.2-.06.37 0 .54.13.15.12.2.26.2.43a.96.96 0 0 1-.5.75c0-.27-.05-.51-.04-.74m.92-.84a.13.13 0 0 1 .1-.07h.03l.12.04c.14.07.18.15.16.26-.05.3-.27.48-.51.66-.05-.34-.06-.65.1-.9" style="fill:url(#aV);stroke:none"/></g></g><path d="m0 0 .4.23-1.1 1.94-.41-.23.43-.75L-2.7.03l.25-.44L-.43.75zm1.82-2.23-2-.31L1.1-.97l-.4.7-2.42-1.4.25-.45L.39-1.04v-.01L-1.07-2.8l.2-.36 2.25.38-1.84-1.07.25-.45 2.43 1.4z" style="fill:#bcbab7;fill-opacity:1;fill-rule:nonzero;stroke:none" transform="matrix(.72827 0 0 -.72827 26 32.24)"/><path style="fill:#9a1032;fill-opacity:1;fill-rule:nonzero;stroke:none" d="M0 0c-.77 0-1.1 1.02-1.1 3.83 0 1.45.72 1.82 2.74 1.82L3 5.64C2.36 3.65 1.5 0 0 0m-4.1 1.91c0-.74.07-1.37.2-1.91h-10.7c-1.42 0-2.32.33-2.32 1.64v3.64h3.36c.28.82.46 1.57.55 2.37h-3.91c.01 1.12.1 2.13.18 3.28a7.12 7.12 0 0 1-3.1-1.9V7.66h-1.73c-.15-.98-.15-1.73-.18-2.37h1.91V1.46c0-2.68 1.62-3.83 3.84-3.83h14.54C.32-2.37 1.7-.9 3.01 2.4v-4.77h2.91V7.65c-1.31.11-2.51.18-3.82.18-3.61 0-6.2-1.49-6.2-5.92m15.3 1.11v.99c0 1.27-.09 2.37-.27 3.64H8.11c.09-1.27.18-2.37.18-3.64v-6.38h2.91c0 3.57 1.15 7.64 4.2 7.2 0 .64-.1 2.1-.28 3-2.22-.19-3.3-2.15-3.92-4.8M-28.95 0c-.76 0-1.1 1.02-1.1 3.83 0 1.45.72 1.82 2.74 1.82l1.36-.01c-.64-1.99-1.5-5.64-3-5.64m-4.1 1.91c0-3.02 1.1-4.46 2.55-4.46 1.79 0 3.21 1.58 4.56 4.95v-4.77h2.91V7.65c-1.3.11-2.51.19-3.82.19-3.61 0-6.2-1.5-6.2-5.93m94.99 4.65c0 2.5-1.73 4-4.83 4a8.78 8.78 0 0 1-3.73-.72 6.9 6.9 0 0 1-.91-2.46c1.16.46 2.3.82 4 .82 1.37 0 2.46-.58 2.46-2.19 0-1.73-1.07-2.98-6.92-6.37 0-.37.02-1.1.18-2h9.66c.27.81.45 1.54.54 2.36h-8.21c4.1 1.4 7.76 2.87 7.76 6.56M-39.91.43l-.15.08c-1.75.93-4.1 2.35-4.1 4.94 0 2.37 1.53 3.48 3.37 3.48 2.04 0 3.28-1.44 3.28-3.96 0-1.73-.95-3.26-2.4-4.54m5.59-2.98-4.8 2.56c2.71.99 4.7 2.93 4.7 5.7 0 3.71-2.78 5.58-6.37 5.58-3.3 0-6.47-2.1-6.47-6.19 0-3.44 2.63-5.5 5.5-7.01l9.26-4.83c0 2.13-.26 3.35-1.82 4.19m68.2 1.1c-.81 0-3.37 1.65-3.37 6.1 0 2.18 1.28 3.55 3.37 3.55 2.1 0 3.38-1.37 3.38-3.56 0-4.44-2.55-6.1-3.38-6.1m0 12.03c-3.64 0-6.37-2.19-6.37-5.74 0-4.65 4.46-7.38 6.37-7.38 1.92 0 6.38 2.73 6.38 7.38 0 3.55-2.73 5.74-6.38 5.74m.04-4.97A8.17 8.17 0 0 1 32.27 4a8.23 8.23 0 0 1 1.66-1.58c.64.45 1.19.98 1.67 1.59a8.29 8.29 0 0 1-1.67 1.59m16.73.96c0 2.5-1.74 4-4.83 4a8.78 8.78 0 0 1-3.74-.72 6.92 6.92 0 0 1-.9-2.46c1.16.46 2.29.82 4 .82 1.37 0 2.46-.58 2.46-2.19 0-1.73-1.07-2.98-6.92-6.37 0-.37.01-1.1.18-2h9.66c.27.81.45 1.54.54 2.36h-8.22c4.1 1.4 7.77 2.87 7.77 6.56m-24.6 0c0 2.5-1.73 4-4.83 4a8.76 8.76 0 0 1-3.73-.72 6.85 6.85 0 0 1-.91-2.46c1.16.46 2.3.82 4 .82 1.37 0 2.46-.58 2.46-2.19 0-1.73-1.07-2.98-6.92-6.37 0-.37.02-1.1.19-2h9.65A11 11 0 0 1 26.51 0h-8.22c4.1 1.4 7.76 2.87 7.76 6.56" transform="matrix(.52908 0 0 -.52908 28.5 75.54)"/><path style="fill:#9a1032;fill-opacity:1;fill-rule:nonzero;stroke:none" d="m0 0-1.36-.3a10.25 10.25 0 0 0-4.03.16c-.74.2-1.4.51-2 .94A4.97 4.97 0 0 0-9.4 5.1c0 .94.16 1.77.46 2.47.31.71.75 1.3 1.3 1.77s1.2.82 1.96 1.05a8.37 8.37 0 0 0 4.1.19c.52-.1 1.05-.24 1.57-.4l-.23-2.33a5.49 5.49 0 0 1-2.82.76 3.5 3.5 0 0 1-1.39-.27A3.13 3.13 0 0 1-6.2 6.51a3.96 3.96 0 0 1 .03-2.83 3.12 3.12 0 0 1 1.88-1.75c.45-.15.93-.23 1.46-.23a7.92 7.92 0 0 1 2.7.56z" transform="matrix(.52908 0 0 -.52908 55.44 67.68)"/><path style="fill:#9a1032;fill-opacity:1;fill-rule:nonzero;stroke:none" d="M0 0c0-.74-.11-1.38-.34-1.92a3.46 3.46 0 0 0-.97-1.33 4.07 4.07 0 0 0-1.5-.78 6.8 6.8 0 0 0-1.93-.26c-.7 0-1.34.09-1.92.26-.59.17-1.09.43-1.5.78-.42.35-.74.8-.97 1.33A4.91 4.91 0 0 0-9.47 0v6.7h2.88V.48c0-.36.03-.7.08-1.01.06-.32.16-.6.3-.84a1.54 1.54 0 0 1 1.47-.78c.38 0 .68.07.92.2.24.15.42.34.56.58.14.24.24.52.3.84.05.31.08.65.08 1V6.7H0Z" transform="matrix(.52908 0 0 -.52908 60.93 65.64)"/><path style="fill:#9a1032;fill-opacity:1;fill-rule:nonzero;stroke:none" d="M0 0h.74c.25 0 .48.02.7.07.22.05.4.13.56.25.16.11.29.27.38.46.1.2.14.43.14.7 0 .28-.04.52-.14.7-.09.19-.22.34-.38.45-.16.11-.34.2-.56.24-.22.05-.45.07-.7.07H0Zm-2.88 4.98H.56c1.66 0 2.88-.28 3.67-.86C5 3.56 5.4 2.67 5.4 1.44c0-1.1-.38-1.95-1.13-2.56a4.87 4.87 0 0 0-3.16-.92H0v-3.78h-2.88z" transform="matrix(.52908 0 0 -.52908 63.22 64.74)"/><path style="fill:#9a1032;fill-opacity:1;fill-rule:nonzero;stroke:none" d="M0 0h2.94l1.4-8.3h.03L5.82 0h3.65L11-8.3h.03l1.4 8.3h2.81l-2.42-10.8h-3.7L7.6-2.5h-.04l-1.42-8.3H2.4Z" transform="matrix(.52908 0 0 -.52908 18.7 62.1)"/><path style="fill:#9a1032;fill-opacity:1;fill-rule:nonzero;stroke:none" d="M0 0c0-.45.05-.88.14-1.3.1-.41.23-.78.43-1.1a2.07 2.07 0 0 1 1.87-1.05A2.09 2.09 0 0 1 4.33-2.4c.2.32.34.69.43 1.1a6 6 0 0 1 0 2.62c-.1.42-.24.79-.43 1.1a2.13 2.13 0 0 1-1.87 1.03A2.12 2.12 0 0 1 .57 2.42c-.2-.31-.34-.68-.43-1.1A6 6 0 0 1 0 0m-2.97 0c0 .87.11 1.65.35 2.34A4.5 4.5 0 0 0 .1 5.2a6.5 6.5 0 0 0 2.35.39c.88 0 1.66-.13 2.34-.39a4.49 4.49 0 0 0 2.72-2.86c.24-.7.35-1.47.35-2.34 0-.86-.11-1.63-.35-2.32A4.5 4.5 0 0 0 4.77-5.2a6.47 6.47 0 0 0-2.32-.39c-.9 0-1.67.13-2.34.39a4.55 4.55 0 0 0-2.73 2.88A7.02 7.02 0 0 0-2.97 0" transform="matrix(.52908 0 0 -.52908 28.39 64.96)"/><path style="fill:#9a1032;fill-opacity:1;fill-rule:nonzero;stroke:none" d="M0 0h.76c.23 0 .47 0 .72.02s.48.07.68.15c.2.08.37.2.5.37.14.17.2.4.2.71 0 .25-.06.45-.18.61a1.1 1.1 0 0 1-.46.37c-.19.08-.41.14-.67.17a6.6 6.6 0 0 1-.8.05H0Zm-2.88 4.49h5.14c.47 0 .92-.06 1.35-.16.42-.11.8-.28 1.11-.5.32-.23.57-.52.75-.86.18-.34.27-.74.27-1.2 0-.73-.17-1.32-.51-1.79a2.59 2.59 0 0 0-1.56-.94v-.03c.23-.06.4-.16.55-.3.14-.13.26-.3.36-.5.1-.2.2-.43.29-.7a15 15 0 0 1 .33-.88l1.05-2.94h-3l-.62 1.94c-.14.47-.28.85-.4 1.15-.14.3-.28.54-.43.71-.15.18-.32.3-.5.37-.2.06-.43.1-.7.1H0v-4.27h-2.88z" transform="matrix(.52908 0 0 -.52908 34.65 64.47)"/><path style="fill:#9a1032;fill-opacity:1;fill-rule:nonzero;stroke:none" d="M0 0h2.88v-8.67h4.46v-2.13H0Z" transform="matrix(.52908 0 0 -.52908 38.6 62.1)"/><path style="fill:#9a1032;fill-opacity:1;fill-rule:nonzero;stroke:none" d="M0 0h1.11c1.09 0 1.92.27 2.5.82.57.55.86 1.36.86 2.45 0 1.08-.3 1.9-.88 2.44a3.5 3.5 0 0 1-2.48.82H0Zm-2.88 8.67h3.93a13 13 0 0 0 2.59-.25 5.24 5.24 0 0 0 2.02-.86 4 4 0 0 0 1.31-1.65 6.2 6.2 0 0 0 .48-2.6c0-1.01-.17-1.86-.49-2.55A4.34 4.34 0 0 0 5.63-.92a5.47 5.47 0 0 0-2.02-.93 10.9 10.9 0 0 0-2.56-.29h-3.93Z" transform="matrix(.52908 0 0 -.52908 44.55 66.68)"/><path style="fill:#9a1032;fill-opacity:1;fill-rule:evenodd;stroke:none" d="M0 0v-10.8h3.36v3.9h2.42l.86 2.36H3.36v2.19h4.08L8.3 0Z" transform="matrix(.52908 0 0 -.52908 .26 62.1)"/><path style="fill:#9a1032;fill-opacity:1;fill-rule:evenodd;stroke:none" d="M104.62 750.37h3.36v10.8h-3.36z" transform="matrix(.52908 0 0 -.52908 -50.15 464.82)"/><path style="fill:#9a1032;fill-opacity:1;fill-rule:evenodd;stroke:none" d="M0 0v-10.8h3.36v3.9h2.42l.86 2.36H3.36v2.19h4.08L8.3 0Z" transform="matrix(.52908 0 0 -.52908 8.2 62.1)"/><path style="fill:#9a1032;fill-opacity:1;fill-rule:evenodd;stroke:none" d="m0 0-1.34 4.5-1.3-4.5Zm4.4-3.53H1L.56-2.08h-3.8l-.42-1.45h-3.31l3.93 10.8h3.5z" transform="matrix(.52908 0 0 -.52908 15.36 65.95)"/></svg>